<?xml version="1.0" encoding="iso-8859-1"?>
<!-- Generator: Adobe Illustrator 16.0.0, SVG Export Plug-In . SVG Version: 6.00 Build 0)  -->
<!DOCTYPE svg PUBLIC "-//W3C//DTD SVG 1.1//EN" "http://www.w3.org/Graphics/SVG/1.1/DTD/svg11.dtd">
<svg xmlns="http://www.w3.org/2000/svg" width="11.53" height="11.52" viewBox="0 0 11.53 11.52">
  <defs>
    <style>
      .a {
        fill: #3b5998;
      }
    </style>
  </defs>
  <title>facebook</title>
  <path class="a" d="M6,0A5.6,5.6,0,0,1,8.24.45a5.8,5.8,0,0,1,1.84,1.24,6,6,0,0,1,1.23,1.82,5.71,5.71,0,0,1,0,4.49,6.13,6.13,0,0,1-1.23,1.83,5.94,5.94,0,0,1-1.84,1.23A5.44,5.44,0,0,1,6,11.52a5.44,5.44,0,0,1-2.24-.46A5.94,5.94,0,0,1,1.92,9.83,6.13,6.13,0,0,1,.69,8a5.71,5.71,0,0,1,0-4.49A6,6,0,0,1,1.92,1.69,5.8,5.8,0,0,1,3.76.45,5.6,5.6,0,0,1,6,0ZM7.36,4V3H6.49A1.13,1.13,0,0,0,6,3.13a1.35,1.35,0,0,0-.4.3,1.22,1.22,0,0,0-.25.43,1.39,1.39,0,0,0-.1.53v.53H4.34v.89h.92V8.48h1V5.81H7.36V4.92H6.28V4.29a.32.32,0,0,1,.07-.22c.05-.07.1-.1.14-.1Z" transform="translate(-0.23)"/>
</svg>
