<?xml version="1.0" encoding="iso-8859-1"?>
<!DOCTYPE svg PUBLIC "-//W3C//DTD SVG 1.1//EN" "http://www.w3.org/Graphics/SVG/1.1/DTD/svg11.dtd">
<!-- Creator: CorelDRAW 2018 (64-Bit) -->
<svg xmlns="http://www.w3.org/2000/svg" xml:space="preserve" width="2.9991mm" height="2.9981mm" version="1.1" style="shape-rendering:geometricPrecision; text-rendering:geometricPrecision; image-rendering:optimizeQuality; fill-rule:evenodd; clip-rule:evenodd"
viewBox="0 0 6.83 6.82"
 xmlns:xlink="http://www.w3.org/1999/xlink">
 <defs>
  <style type="text/css">
   <![CDATA[
    .fil0 {fill:#FF3F18}
    .fil1 {fill:white}
   ]]>
  </style>
 </defs>
 <g id="Слой_x0020_1">
  <metadata id="CorelCorpID_0Corel-Layer"/>
  <g id="_2362304471792">
   <g>
    <g id="XMLID_1_">
     <g>
      <path class="fil0" d="M3.33 0c1.95,-0.04 3.54,1.55 3.49,3.51 -0.05,1.79 -1.52,3.33 -3.45,3.31 -1.84,-0.02 -3.36,-1.51 -3.37,-3.41 0.01,-1.9 1.52,-3.37 3.33,-3.41zm2.48 3.32c0.18,-0.13 0.29,-0.31 0.27,-0.54 -0.02,-0.23 -0.14,-0.4 -0.35,-0.49 -0.23,-0.1 -0.45,-0.07 -0.64,0.09 -0.02,0.02 -0.04,0.02 -0.06,0 -0.36,-0.24 -0.76,-0.37 -1.19,-0.42 -0.05,-0.01 -0.1,-0.01 -0.15,-0.02 0.09,-0.29 0.18,-0.57 0.28,-0.86 0.02,0 0.04,0.01 0.06,0.01 0.22,0.05 0.44,0.1 0.66,0.14 0.05,0.01 0.07,0.03 0.08,0.07 0.06,0.23 0.29,0.37 0.51,0.33 0.31,-0.05 0.48,-0.39 0.33,-0.66 -0.12,-0.22 -0.5,-0.34 -0.74,-0.06 -0.02,0.03 -0.04,0.03 -0.08,0.03 -0.29,-0.06 -0.57,-0.12 -0.86,-0.18 -0.12,-0.03 -0.17,0.01 -0.21,0.12 -0.1,0.33 -0.21,0.65 -0.31,0.98 -0.01,0.03 -0.02,0.05 -0.05,0.05 -0.19,-0 -0.38,0.03 -0.57,0.07 -0.34,0.07 -0.65,0.2 -0.94,0.39 -0.03,0.02 -0.04,0.01 -0.07,-0 -0.1,-0.05 -0.19,-0.1 -0.3,-0.13 -0.36,-0.09 -0.78,0.2 -0.71,0.67 0.03,0.19 0.14,0.32 0.29,0.42 0.03,0.02 0.03,0.03 0.03,0.06 -0.04,0.26 -0.02,0.51 0.09,0.75 0.15,0.34 0.4,0.59 0.71,0.78 0.35,0.22 0.74,0.33 1.15,0.39 0.36,0.05 0.71,0.03 1.07,-0.05 0.51,-0.11 0.96,-0.33 1.3,-0.73 0.28,-0.32 0.4,-0.68 0.34,-1.1 -0.01,-0.06 0.01,-0.08 0.05,-0.12z"/>
      <path class="fil1" d="M6.09 2.77c0.02,0.23 -0.09,0.41 -0.27,0.54 -0.04,0.03 -0.06,0.06 -0.05,0.11 0.06,0.42 -0.07,0.79 -0.34,1.1 -0.35,0.4 -0.8,0.62 -1.3,0.73 -0.35,0.08 -0.71,0.1 -1.07,0.05 -0.41,-0.05 -0.8,-0.16 -1.15,-0.39 -0.31,-0.19 -0.56,-0.44 -0.71,-0.78 -0.1,-0.24 -0.13,-0.49 -0.09,-0.75 0,-0.03 -0,-0.04 -0.03,-0.06 -0.15,-0.1 -0.26,-0.24 -0.29,-0.42 -0.07,-0.48 0.35,-0.77 0.71,-0.67 0.1,0.03 0.2,0.08 0.3,0.13 0.02,0.01 0.04,0.02 0.07,0 0.29,-0.19 0.6,-0.32 0.94,-0.39 0.19,-0.04 0.38,-0.07 0.57,-0.07 0.04,0 0.05,-0.02 0.05,-0.05 0.1,-0.33 0.21,-0.65 0.31,-0.98 0.04,-0.12 0.09,-0.15 0.21,-0.12 0.29,0.06 0.57,0.12 0.86,0.18 0.04,0.01 0.06,0 0.08,-0.03 0.24,-0.28 0.62,-0.15 0.74,0.06 0.15,0.27 -0.02,0.61 -0.33,0.66 -0.23,0.04 -0.45,-0.11 -0.51,-0.33 -0.01,-0.05 -0.04,-0.06 -0.08,-0.07 -0.22,-0.04 -0.44,-0.09 -0.66,-0.14 -0.02,-0 -0.04,-0.01 -0.06,-0.01 -0.09,0.29 -0.18,0.57 -0.28,0.86 0.06,0.01 0.1,0.01 0.15,0.02 0.43,0.04 0.83,0.18 1.19,0.42 0.02,0.02 0.04,0.01 0.06,-0 0.2,-0.16 0.41,-0.19 0.64,-0.09 0.21,0.09 0.33,0.26 0.35,0.49zm-1.83 0.92c0.19,0 0.36,-0.17 0.36,-0.36 -0,-0.2 -0.16,-0.37 -0.36,-0.37 -0.19,0 -0.36,0.16 -0.36,0.35 0,0.2 0.16,0.37 0.36,0.37zm0.09 0.69c0.04,-0.05 0.03,-0.11 -0.01,-0.14 -0.05,-0.05 -0.12,-0.07 -0.17,-0.04 -0.02,0.01 -0.04,0.03 -0.06,0.04 -0.37,0.22 -0.75,0.26 -1.14,0.09 -0.08,-0.03 -0.16,-0.08 -0.23,-0.13 -0.06,-0.03 -0.13,-0.02 -0.18,0.03 -0.04,0.04 -0.04,0.1 -0,0.15 0.02,0.03 0.05,0.05 0.08,0.07 0.25,0.17 0.53,0.25 0.85,0.25 0.04,-0 0.09,-0.01 0.15,-0.01 0.2,-0.02 0.39,-0.07 0.56,-0.17 0.06,-0.04 0.12,-0.09 0.17,-0.15zm-1.71 -0.69c0.18,-0 0.35,-0.18 0.35,-0.36 -0,-0.2 -0.17,-0.36 -0.36,-0.36 -0.19,0 -0.36,0.17 -0.36,0.36 0,0.2 0.17,0.36 0.37,0.36z"/>
      <path class="fil0" d="M4.61 3.33c0,0.19 -0.17,0.36 -0.36,0.36 -0.2,0 -0.36,-0.17 -0.36,-0.37 -0,-0.19 0.17,-0.35 0.36,-0.35 0.2,-0 0.36,0.16 0.36,0.37z"/>
      <path class="fil0" d="M4.33 4.24c0.04,0.04 0.05,0.09 0.01,0.14 -0.05,0.06 -0.11,0.11 -0.17,0.15 -0.17,0.1 -0.36,0.16 -0.56,0.17 -0.06,0.01 -0.11,0.01 -0.15,0.01 -0.32,-0 -0.6,-0.08 -0.85,-0.25 -0.03,-0.02 -0.06,-0.05 -0.08,-0.07 -0.04,-0.05 -0.03,-0.11 0,-0.15 0.05,-0.06 0.13,-0.07 0.18,-0.03 0.08,0.04 0.15,0.09 0.23,0.13 0.4,0.16 0.78,0.13 1.14,-0.09 0.02,-0.01 0.04,-0.03 0.06,-0.04 0.05,-0.03 0.12,-0.02 0.17,0.04z"/>
      <path class="fil0" d="M2.98 3.33c0,0.18 -0.17,0.36 -0.35,0.36 -0.2,0 -0.37,-0.16 -0.37,-0.36 -0,-0.2 0.17,-0.36 0.36,-0.36 0.2,0 0.36,0.17 0.36,0.36z"/>
     </g>
     <g>
     </g>
    </g>
   </g>
  </g>
 </g>
</svg>
