<?xml version="1.0" encoding="iso-8859-1"?>
<!-- Generator: Adobe Illustrator 16.0.0, SVG Export Plug-In . SVG Version: 6.00 Build 0)  -->
<!DOCTYPE svg PUBLIC "-//W3C//DTD SVG 1.1//EN" "http://www.w3.org/Graphics/SVG/1.1/DTD/svg11.dtd">
<svg xmlns="http://www.w3.org/2000/svg" width="13.29" height="11.14" viewBox="0 0 13.29 11.14">
  <defs>
    <style>
      .a {
        fill: #7a0000;
      }
    </style>
  </defs>
  <title>Reddit</title>
  <path class="a" d="M.45,4.38a1.43,1.43,0,0,1,1.06-.44,1.48,1.48,0,0,1,1,.37,7.33,7.33,0,0,1,4-1.1L7.37.38A.26.26,0,0,1,7.49.23a.3.3,0,0,1,.19,0L10,.75a1.31,1.31,0,0,1,.45-.54A1.22,1.22,0,0,1,11.14,0,1.19,1.19,0,0,1,12,.36a1.19,1.19,0,0,1,.37.88,1.2,1.2,0,0,1-.37.89,1.22,1.22,0,0,1-1.75,0,1.12,1.12,0,0,1-.37-.86L7.79.76,7,3.21a7.26,7.26,0,0,1,3.75,1.11,1.52,1.52,0,0,1,1-.38,1.52,1.52,0,0,1,1.51,1.51,1.43,1.43,0,0,1-.21.76,1.53,1.53,0,0,1-.55.55c0,.15,0,.29,0,.41a2.86,2.86,0,0,1-.46,1.55A4.29,4.29,0,0,1,10.77,10a6.37,6.37,0,0,1-1.91.84,8.24,8.24,0,0,1-2.24.29,8.39,8.39,0,0,1-2.26-.29A6.42,6.42,0,0,1,2.46,10,4.29,4.29,0,0,1,1.14,8.72,2.83,2.83,0,0,1,.68,7.17a3.89,3.89,0,0,1,0-.44A1.55,1.55,0,0,1,.2,6.19,1.49,1.49,0,0,1,0,5.45,1.47,1.47,0,0,1,.45,4.38ZM.86,6.2a3.63,3.63,0,0,1,1.2-1.58,1,1,0,0,0-.55-.17.94.94,0,0,0-.7.3.93.93,0,0,0-.29.7A1,1,0,0,0,.86,6.2Zm.73,2.27A3.85,3.85,0,0,0,2.74,9.59a6.45,6.45,0,0,0,1.77.77,8.14,8.14,0,0,0,2.11.27,8.06,8.06,0,0,0,2.1-.27,6.45,6.45,0,0,0,1.77-.77,3.85,3.85,0,0,0,1.15-1.12,2.3,2.3,0,0,0,0-2.59,4,4,0,0,0-1.15-1.11A6.17,6.17,0,0,0,8.72,4,8.34,8.34,0,0,0,4.51,4a6.17,6.17,0,0,0-1.77.77A4,4,0,0,0,1.59,5.88a2.35,2.35,0,0,0,0,2.59ZM4,5.8a.92.92,0,0,1,1.57.66.87.87,0,0,1-.27.64.89.89,0,0,1-.65.27A.88.88,0,0,1,4,7.1a.85.85,0,0,1-.29-.64A.88.88,0,0,1,4,5.8Zm.5,2.9a.24.24,0,0,1,.18-.07.23.23,0,0,1,.18.07,2.5,2.5,0,0,0,1.77.51h0A2.52,2.52,0,0,0,8.43,8.7a.21.21,0,0,1,.17-.07.28.28,0,0,1,.19.07.24.24,0,0,1,.07.18.25.25,0,0,1-.07.19,3,3,0,0,1-2.15.66h0A3,3,0,0,1,4.5,9.07a.25.25,0,0,1-.07-.19A.24.24,0,0,1,4.5,8.7ZM8,5.8a.89.89,0,0,1,.65-.27.94.94,0,0,1,.92.93.84.84,0,0,1-.28.64.87.87,0,0,1-.64.27A.93.93,0,0,1,8,7.1a.87.87,0,0,1-.27-.64A.91.91,0,0,1,8,5.8Zm2.63-4a.71.71,0,0,0,1,0,.7.7,0,0,0,.21-.52.73.73,0,0,0-.21-.51.74.74,0,0,0-1,0,.73.73,0,0,0-.21.51A.7.7,0,0,0,10.63,1.76Zm1.76,4.47a1,1,0,0,0,.38-.78,1,1,0,0,0-1-1,1,1,0,0,0-.59.19A3.58,3.58,0,0,1,12.39,6.23Z"/>
</svg>
