<?xml version="1.0" encoding="iso-8859-1"?>
<svg xmlns="http://www.w3.org/2000/svg" width="8.49" height="8.49" viewBox="0 0 8.49 8.49">
 <defs>
  <style>
   .a {
   fill: #0066b1;
   fill-rule: evenodd;
   }
  </style>
 </defs>
 <title>vk-1</title>
 <path class="a" d="M4.24,8.49A4.25,4.25,0,1,0,0,4.24,4.25,4.25,0,0,0,4.24,8.49ZM3.59,4.18v0a6.48,6.48,0,0,0,0-1.1c0-.09-.09-.07-.18-.11s0-.13,0-.16a.81.81,0,0,1,.48-.09c.73,0,.81,0,.82.34s0,.76,0,1.14c.5,0,.83-.95,1-1.22s.9-.16,1.2-.06c0,.14-.25.51-.33.64-.71,1.12-.71.88.1,1.71s.23.54-.72.54c-.21,0-.24,0-.36-.11s-.48-.56-.87-.6c0,.4.07.69-.17.71a5.71,5.71,0,0,1-.83,0C3.06,5.62,2.36,4.58,2,4a4,4,0,0,1-.55-1.15,2.41,2.41,0,0,1,.85,0c.22,0,.23.06.45.43s.48.87.79.92Z"/>
</svg>
