<?xml version="1.0" encoding="iso-8859-1"?>
<svg xmlns="http://www.w3.org/2000/svg" width="193.04" height="193.97" viewBox="0 0 193.04 193.97">
  <defs>
    <style>
      .a {
        fill: #fff;
      }
    </style>
  </defs>
  <title>Mail</title>
  <path class="a" d="M160.8.19a31,31,0,0,1,12.63,2.56,32.4,32.4,0,0,1,17.06,17.14A31.55,31.55,0,0,1,193,32.58V161.77a31.56,31.56,0,0,1-2.55,12.7,32.4,32.4,0,0,1-17.06,17.14,31.2,31.2,0,0,1-12.63,2.56H32.24a31.2,31.2,0,0,1-12.63-2.56A32.47,32.47,0,0,1,2.54,174.47,31.72,31.72,0,0,1,0,161.77V32.58A31.71,31.71,0,0,1,2.54,19.89,32.47,32.47,0,0,1,19.61,2.75,31,31,0,0,1,32.24.19ZM36.19,133.55a13.11,13.11,0,0,0,.1,1.61,12.52,12.52,0,0,0,.28,1.61l35.07-35.23L36.19,60.05v73.5ZM48.26,48.69a11.26,11.26,0,0,0-2.55.28,10.49,10.49,0,0,0-2.35.85l53.16,62.32,53.16-62.32a10.4,10.4,0,0,0-2.36-.85,11.17,11.17,0,0,0-2.54-.28Zm96.52,97a15.14,15.14,0,0,0,1.6-.09,10.84,10.84,0,0,0,1.6-.29l-34.49-34.47-17,19.89-17-19.89-34.5,34.47a11.23,11.23,0,0,0,1.61.29,15.14,15.14,0,0,0,1.6.09Zm12.06-12.12V60.05L121.4,101.54l35.07,35.23a14.53,14.53,0,0,0,.28-1.61A15.32,15.32,0,0,0,156.84,133.55Z" transform="translate(0 -0.19)"/>
</svg>