<?xml version="1.0" encoding="iso-8859-1"?>
<!-- Generator: Adobe Illustrator 19.0.0, SVG Export Plug-In . SVG Version: 6.00 Build 0)  -->
<svg version="1.1" id="Layer_1" xmlns="http://www.w3.org/2000/svg" xmlns:xlink="http://www.w3.org/1999/xlink" x="0px" y="0px"
	 viewBox="0 0 224.557 224.557" style="enable-background:new 0 0 224.557 224.557;" xml:space="preserve">
<g>
	<path style="fill:#ffffff;" d="M193.391,173.798c10.404,11.642,7.929,30.938-6.234,38.272c-10.404,5.408-22.734,1.879-28.967-6.921
		c-5.5-6.6-7.013-16.775-2.704-25.026C162.911,166.006,182.253,161.285,193.391,173.798z"/>
	<path style="fill:#ffffff;" d="M144.257,210.832c0.229,0.688,0.183,1.283,0.092,1.879c0.367,2.154-0.504,4.584-3.209,5.454
		c-27.959,8.938-58.668,9.167-85.619-3.575c-17.784-8.434-34.789-25.209-29.884-46.706c8.571-37.218,56.01-18.38,50.326,5.408
		c12.055,8.8,29.38,13.934,41.526,2.888c10.68-9.717,7.7-19.846,1.146-29.013c-16.821-15.171-46.98-24.934-61.968-35.705
		C42.183,101.104,32.42,88.591,30.037,70.67C24.17,26.027,63.771,2.514,103.693,0.084c27.501-1.65,85.207,20.992,68.11,58.439
		c-10.68,23.421-44.139,18.792-48.218-3.896c-4.996-4.217-9.992-8.25-17.005-9.488c-11.459-2.017-21.634,3.85-25.484,13.934
		c1.558,9.442,7.471,17.509,18.976,24.705c12.65,7.975,26.722,12.238,39.968,18.93c18.746,9.442,33.78,24.751,33.322,46.339
		c2.521,2.613,1.558,8.296-2.475,9.213C146.044,163.897,136.144,187.686,144.257,210.832z"/>
</g>
<g>
</g>
<g>
</g>
<g>
</g>
<g>
</g>
<g>
</g>
<g>
</g>
<g>
</g>
<g>
</g>
<g>
</g>
<g>
</g>
<g>
</g>
<g>
</g>
<g>
</g>
<g>
</g>
<g>
</g>
</svg>
