<?xml version="1.0" encoding="iso-8859-1"?>
<svg xmlns="http://www.w3.org/2000/svg" width="168.91" height="193.97" viewBox="0 0 168.91 193.97">
  <defs>
    <style>
      .a {
        fill: #fff;
      }
    </style>
  </defs>
  <title>Terms</title>
  <path class="a" d="M168.15,35.8a36.1,36.1,0,0,1,5,6.45,52.12,52.12,0,0,1,4,8,70.23,70.23,0,0,1,2.74,8.62,34.17,34.17,0,0,1,1,8.05V176a17.89,17.89,0,0,1-1.41,7.1,18.05,18.05,0,0,1-9.61,9.67,17.82,17.82,0,0,1-7.07,1.42H30.16a17.82,17.82,0,0,1-7.07-1.42,18.05,18.05,0,0,1-9.61-9.67,17.9,17.9,0,0,1-1.42-7.1V18.38a18,18,0,0,1,1.42-7.11,18.08,18.08,0,0,1,9.61-9.66A17.82,17.82,0,0,1,30.16.19h84.46a33.89,33.89,0,0,1,8,1A68.11,68.11,0,0,1,131.21,4a53.19,53.19,0,0,1,7.91,4.07,36.25,36.25,0,0,1,6.41,5ZM156.84,169.92v-97H108.58V24.44H36.19V169.92ZM48.26,109.3h96.52V97.18H48.26Zm0,24.25h96.52V121.43H48.26Zm0,24.25h96.52V145.67H48.26ZM120.65,26V60.81h34.69a2.18,2.18,0,0,0-.1-.66,6.15,6.15,0,0,0-.28-.67,42,42,0,0,0-2.17-4.16,13.53,13.53,0,0,0-1.6-2.28L128.38,30.12a14.06,14.06,0,0,0-2.26-1.61A43.94,43.94,0,0,0,122,26.33a5.36,5.36,0,0,0-.66-.28A2.18,2.18,0,0,0,120.65,26Z" transform="translate(-12.06 -0.19)"/>
</svg>