<?xml version="1.0" encoding="iso-8859-1"?>
<!-- Generator: Adobe Illustrator 16.0.0, SVG Export Plug-In . SVG Version: 6.00 Build 0)  -->
<!DOCTYPE svg PUBLIC "-//W3C//DTD SVG 1.1//EN" "http://www.w3.org/Graphics/SVG/1.1/DTD/svg11.dtd">
<svg xmlns="http://www.w3.org/2000/svg" width="11.14" height="12" viewBox="0 0 11.14 12">
  <defs>
    <style>
      .a {
        fill: #1e2425;
      }
    </style>
  </defs>
  <title>Calendar</title>
  <path class="a" d="M0,2.58A.83.83,0,0,1,.26,2a.79.79,0,0,1,.6-.26h.85V1.08A1,1,0,0,1,2,.32,1,1,0,0,1,2.79,0h.42A1,1,0,0,1,4,.32a1,1,0,0,1,.32.76v.63H6.86V1.08A1,1,0,0,1,7.17.32,1.05,1.05,0,0,1,7.93,0h.43a1.05,1.05,0,0,1,.76.32,1,1,0,0,1,.31.76v.63h.86a.84.84,0,0,1,.6.26.82.82,0,0,1,.25.61v8.56a.79.79,0,0,1-.25.6.84.84,0,0,1-.6.26H.86a.79.79,0,0,1-.6-.26.79.79,0,0,1-.26-.6ZM2.79,6.21V4.29H.86V6.21Zm0,2.58V6.64H.86V8.79Zm0,2.35V9.21H.86v1.93Zm-.15-8a.2.2,0,0,0,.15.06h.42a.2.2,0,0,0,.15-.06A.18.18,0,0,0,3.43,3V1.08A.17.17,0,0,0,3.36.93.18.18,0,0,0,3.21.86H2.79a.18.18,0,0,0-.15.07.17.17,0,0,0-.07.15V3A.18.18,0,0,0,2.64,3.15ZM5.36,6.21V4.29H3.21V6.21Zm0,2.58V6.64H3.21V8.79Zm0,2.35V9.21H3.21v1.93ZM7.93,6.21V4.29H5.79V6.21Zm0,2.58V6.64H5.79V8.79Zm0,2.35V9.21H5.79v1.93Zm-.15-8a.2.2,0,0,0,.15.06h.43A.21.21,0,0,0,8.57,3V1.08A.19.19,0,0,0,8.51.93.18.18,0,0,0,8.36.86H7.93a.18.18,0,0,0-.15.07.17.17,0,0,0-.07.15V3A.18.18,0,0,0,7.78,3.15Zm2.51,3.06V4.29H8.36V6.21Zm0,2.58V6.64H8.36V8.79Zm0,2.35V9.21H8.36v1.93Z"/>
</svg>