<?xml version="1.0" encoding="iso-8859-1"?>
<!-- Generator: Adobe Illustrator 16.0.0, SVG Export Plug-In . SVG Version: 6.00 Build 0)  -->
<!DOCTYPE svg PUBLIC "-//W3C//DTD SVG 1.1//EN" "http://www.w3.org/Graphics/SVG/1.1/DTD/svg11.dtd">
<svg xmlns="http://www.w3.org/2000/svg" width="12" height="12" viewBox="0 0 12 12">
  <defs>
    <style>
      .a {
        fill: #1b2e30;
      }
    </style>
  </defs>
  <title>Email</title>
  <path class="a" d="M6,0A5.93,5.93,0,0,1,8.34.48a5.82,5.82,0,0,1,1.9,1.29,5.82,5.82,0,0,1,1.29,1.9,6.06,6.06,0,0,1,0,4.68,5.82,5.82,0,0,1-1.29,1.9,5.82,5.82,0,0,1-1.9,1.29A5.76,5.76,0,0,1,6,12a5.76,5.76,0,0,1-2.34-.47,5.82,5.82,0,0,1-1.9-1.29A5.82,5.82,0,0,1,.47,8.35a6.06,6.06,0,0,1,0-4.68,5.82,5.82,0,0,1,1.29-1.9A5.82,5.82,0,0,1,3.66.48,5.93,5.93,0,0,1,6,0ZM2.25,8.26a.34.34,0,0,0,0,.1s0,.07,0,.1L4.45,6.28,2.25,3.71V8.26ZM3,3,2.84,3l-.14.05L6,6.94,9.3,3.08,9.16,3,9,3ZM9,9h.1l.1,0L7.05,6.86,6,8.09,5,6.86,2.8,9l.1,0H9Zm.75-.75V3.71L7.55,6.28,9.73,8.46s0-.06,0-.1A.34.34,0,0,0,9.75,8.26Z" transform="translate(0 -0.01)"/>
</svg>
