<?xml version="1.0" encoding="iso-8859-1"?>
<!-- Generator: Adobe Illustrator 16.0.0, SVG Export Plug-In . SVG Version: 6.00 Build 0)  -->
<!DOCTYPE svg PUBLIC "-//W3C//DTD SVG 1.1//EN" "http://www.w3.org/Graphics/SVG/1.1/DTD/svg11.dtd">
<svg xmlns="http://www.w3.org/2000/svg" width="285.61" height="28.77" viewBox="0 0 285.61 28.77">
  <defs>
    <style>
      .a {
        fill-rule: evenodd;
        fill: #1b2e30;
      }
    </style>
  </defs>
  <title>formula</title>
  <g>
    <path class="a" d="M6.37,11.51,6,13.17H5.48a3.57,3.57,0,0,0-.08-.71.88.88,0,0,0-.14-.32.41.41,0,0,0-.2-.12,1.42,1.42,0,0,0-.33,0H3l-.61,2.82h1A.84.84,0,0,0,4,14.63,2.2,2.2,0,0,0,4.38,14h.49l-.49,2.07H3.92a2,2,0,0,0,0-.59.31.31,0,0,0-.16-.19,1.13,1.13,0,0,0-.38,0H2.25L1.56,18.4h1.6a1.36,1.36,0,0,0,.5-.07A.91.91,0,0,0,4,18.12a1.76,1.76,0,0,0,.33-.4c.11-.18.24-.41.39-.71h.53l-.48,1.86H0l.06-.26a.7.7,0,0,0,.31-.11.69.69,0,0,0,.17-.2A1.52,1.52,0,0,0,.67,18q.06-.19.18-.72l.91-4.15a4.22,4.22,0,0,0,.12-.87.43.43,0,0,0-.13-.36.74.74,0,0,0-.4-.11l.06-.27Z"/>
    <path class="a" d="M8.4,12.81a5.14,5.14,0,0,0,.44,2.26,2.21,2.21,0,0,0,1.35,1.19l-.1.31a2.87,2.87,0,0,1-1.76-1.3,4.56,4.56,0,0,1-.61-2.42,4.57,4.57,0,0,1,.61-2.43,2.87,2.87,0,0,1,1.76-1.3l.11.3A2.27,2.27,0,0,0,8.84,10.6,5,5,0,0,0,8.4,12.81Z"/>
    <path class="a" d="M12.84,9.24l-.19.85h-.78l.19-.85Zm-.94,4.2c0,.15-.06.28-.08.37a2.32,2.32,0,0,0,0,.24.32.32,0,0,0,.06.22.25.25,0,0,0,.18.07.32.32,0,0,0,.14,0l.16-.09.17-.15.22-.22.26.26a3.81,3.81,0,0,1-.37.35,1.9,1.9,0,0,1-.31.23,1,1,0,0,1-.3.13,1,1,0,0,1-.3,0,.59.59,0,0,1-.27,0,.8.8,0,0,1-.21-.15.86.86,0,0,1-.13-.23.94.94,0,0,1,0-.3,1.45,1.45,0,0,1,0-.32,3.83,3.83,0,0,1,.08-.42c0-.15.06-.31.1-.47l.12-.49c0-.16.07-.32.1-.47s0-.29.07-.41v-.11a.28.28,0,0,0-.1-.23.87.87,0,0,0-.36-.08l.05-.26,1.14,0h.19Z"/>
    <path class="a" d="M15.35,12.81a4.83,4.83,0,0,0-.44-2.21,2.24,2.24,0,0,0-1.36-1.18l.11-.3a2.87,2.87,0,0,1,1.76,1.3A4.57,4.57,0,0,1,16,12.85a4.56,4.56,0,0,1-.61,2.42,2.87,2.87,0,0,1-1.76,1.3l-.1-.31a2.21,2.21,0,0,0,1.35-1.19A5,5,0,0,0,15.35,12.81Z"/>
    <path class="a" d="M19.15,15.78a7.11,7.11,0,0,0,.6,3.12,3.1,3.1,0,0,0,1.85,1.63l-.13.42a3.9,3.9,0,0,1-2.42-1.79,6.23,6.23,0,0,1-.84-3.32,6.14,6.14,0,0,1,.85-3.32,3.89,3.89,0,0,1,2.41-1.8l.15.42a3.15,3.15,0,0,0-1.87,1.62A6.74,6.74,0,0,0,19.15,15.78Z"/>
    <path class="a" d="M25.55,17.85a3.8,3.8,0,0,1-.9.84,1.72,1.72,0,0,1-.91.27,1,1,0,0,1-1.13-1.14,3.49,3.49,0,0,1,.09-.76l.64-2.8h-.91l.08-.37a1.93,1.93,0,0,0,.49-.05.85.85,0,0,0,.27-.12.67.67,0,0,0,.2-.21,2,2,0,0,0,.18-.36c.06-.14.15-.4.26-.76h.74l-.29,1.33H26l-.12.54H24.24l-.48,2.1q-.14.6-.18.87c0,.18,0,.32,0,.43,0,.45.19.67.56.67a.88.88,0,0,0,.5-.18,3.55,3.55,0,0,0,.64-.62Z"/>
    <path class="a" d="M28,18.18a4,4,0,0,1,.75-.78,1.37,1.37,0,0,1,.77-.26.79.79,0,0,1,.62.23.89.89,0,0,1,.21.63,1.6,1.6,0,0,1,0,.33c0,.15-.05.3-.09.48s-.07.34-.11.52-.08.34-.12.5-.07.28-.09.38a1,1,0,0,0,0,.2.32.32,0,0,0,.06.22.18.18,0,0,0,.17.07.4.4,0,0,0,.15,0,.6.6,0,0,0,.15-.09l.18-.15.21-.22.27.26-.35.34a2.79,2.79,0,0,1-.32.23,1.35,1.35,0,0,1-.3.14,1.08,1.08,0,0,1-.32,0,.58.58,0,0,1-.26,0,.75.75,0,0,1-.2-.15.69.69,0,0,1-.18-.52,2.73,2.73,0,0,1,0-.37c0-.14.06-.29.1-.46s.09-.33.13-.49.08-.3.11-.43.05-.25.07-.35a1.28,1.28,0,0,0,0-.26.6.6,0,0,0-.09-.36.37.37,0,0,0-.29-.11.65.65,0,0,0-.26.06,1.34,1.34,0,0,0-.27.17,2.17,2.17,0,0,0-.27.26,1.83,1.83,0,0,0-.24.31,4,4,0,0,0-.2.35,2.53,2.53,0,0,0-.12.36l-.44,2h-.77l.59-2.56c0-.13.06-.25.08-.36s0-.2,0-.27-.08-.28-.23-.28a.4.4,0,0,0-.15,0l-.15.09-.17.15-.22.21-.27-.26c.13-.13.25-.25.36-.34a2,2,0,0,1,.31-.24,1.3,1.3,0,0,1,.3-.13.94.94,0,0,1,.3-.05.59.59,0,0,1,.45.19.76.76,0,0,1,.16.51A.92.92,0,0,1,28,18a1.09,1.09,0,0,1-.05.17Z"/>
    <path class="a" d="M34.56,15.78a6.74,6.74,0,0,0-.6-3,3.12,3.12,0,0,0-1.87-1.62l.14-.42a3.91,3.91,0,0,1,2.42,1.8,6.23,6.23,0,0,1,.84,3.32,6.23,6.23,0,0,1-.84,3.32A3.87,3.87,0,0,1,32.23,21l-.13-.42A3.11,3.11,0,0,0,34,18.9,7.11,7.11,0,0,0,34.56,15.78Z"/>
    <path class="a" d="M40.13,15v-.72h6.64V15Zm0,2.24v-.72h6.64v.72Z"/>
    <path class="a" d="M55.51,6.7a1.83,1.83,0,0,1,.77.57,1.4,1.4,0,0,1,.27.84,2.22,2.22,0,0,1-.33,1.23,2.33,2.33,0,0,1-1,.82,4.61,4.61,0,0,1-1.92.31h-2.4l.06-.26a.7.7,0,0,0,.31-.11.69.69,0,0,0,.17-.2,1.81,1.81,0,0,0,.13-.31q.06-.19.18-.72l.91-4.15a4.23,4.23,0,0,0,.12-.86.46.46,0,0,0-.12-.36.71.71,0,0,0-.41-.12l.06-.27H55a4.18,4.18,0,0,1,1.3.17,1.43,1.43,0,0,1,.71.5,1.38,1.38,0,0,1,.23.83,1.86,1.86,0,0,1-.43,1.23,2.72,2.72,0,0,1-1.28.81v0ZM54,6.41a3.93,3.93,0,0,0,1-.1,1.55,1.55,0,0,0,.66-.37,1.57,1.57,0,0,0,.42-.58,2,2,0,0,0,.13-.73,1.26,1.26,0,0,0-.08-.43.83.83,0,0,0-.28-.34,1.14,1.14,0,0,0-.46-.21,3,3,0,0,0-.68-.06h-.87l-.61,2.81ZM52.48,10l.81,0a3,3,0,0,0,1.23-.19,1.64,1.64,0,0,0,.71-.66A2.12,2.12,0,0,0,55.52,8a1,1,0,0,0-.35-.82,1.78,1.78,0,0,0-1.07-.27h-1Z"/>
    <path class="a" d="M60.51,11.92a4.06,4.06,0,0,1-.91.68,2.2,2.2,0,0,1-1,.22,1.53,1.53,0,0,1-.54-.09,1,1,0,0,1-.4-.27,1.22,1.22,0,0,1-.25-.43,1.71,1.71,0,0,1-.08-.57,3.67,3.67,0,0,1,0-.46,3,3,0,0,1,.13-.49,3.15,3.15,0,0,1,.2-.47A3,3,0,0,1,58,9.61,2.45,2.45,0,0,1,58.79,9a2.31,2.31,0,0,1,1-.23,1.19,1.19,0,0,1,.76.22.8.8,0,0,1,.26.63c0,.95-.9,1.42-2.69,1.42l0,.22a2.17,2.17,0,0,0,0,.26,1,1,0,0,0,.17.63.71.71,0,0,0,.55.19,1.37,1.37,0,0,0,.36,0,1.4,1.4,0,0,0,.34-.13,1.63,1.63,0,0,0,.34-.22c.11-.09.23-.2.35-.32l.3.32Zm-2.29-1.29a4.27,4.27,0,0,0,.86-.08,2.39,2.39,0,0,0,.59-.2A.9.9,0,0,0,60,10a.68.68,0,0,0,.11-.39A.56.56,0,0,0,60,9.27a.45.45,0,0,0-.35-.14,1,1,0,0,0-.43.11,1.36,1.36,0,0,0-.39.3,2.1,2.1,0,0,0-.34.47A2.89,2.89,0,0,0,58.22,10.63Z"/>
    <path class="a" d="M63.79,7.74a7.11,7.11,0,0,0,.6,3.12,3.1,3.1,0,0,0,1.85,1.63l-.13.42a3.9,3.9,0,0,1-2.42-1.79,6.23,6.23,0,0,1-.84-3.32,6.14,6.14,0,0,1,.85-3.32,3.89,3.89,0,0,1,2.41-1.8l.15.42a3.09,3.09,0,0,0-1.87,1.62A6.74,6.74,0,0,0,63.79,7.74Z"/>
    <path class="a" d="M70.19,9.45a3.8,3.8,0,0,1-.9.84,1.72,1.72,0,0,1-.91.27,1,1,0,0,1-1.13-1.14,3.49,3.49,0,0,1,.09-.76L68,5.86h-.91l.08-.37a1.93,1.93,0,0,0,.49,0,.85.85,0,0,0,.27-.12.67.67,0,0,0,.2-.21,2,2,0,0,0,.18-.36c.06-.15.15-.4.26-.76h.74L69,5.32h1.64l-.12.54H68.88L68.4,8q-.14.6-.18.87c0,.18,0,.32,0,.43,0,.45.19.67.56.67a.88.88,0,0,0,.5-.18,3.55,3.55,0,0,0,.64-.62Z"/>
    <path class="a" d="M72.67,9.78A4,4,0,0,1,73.42,9a1.37,1.37,0,0,1,.77-.26.79.79,0,0,1,.62.23A.89.89,0,0,1,75,9.6a1.6,1.6,0,0,1,0,.33q0,.23-.09.48c0,.17-.07.34-.11.52s-.08.34-.12.5-.07.28-.09.38a1,1,0,0,0,0,.2.32.32,0,0,0,.06.22.18.18,0,0,0,.17.07l.15,0a.6.6,0,0,0,.15-.09,2,2,0,0,0,.18-.15l.21-.22.27.26-.35.34a2.79,2.79,0,0,1-.32.23,1.35,1.35,0,0,1-.3.14,1.08,1.08,0,0,1-.32,0,.58.58,0,0,1-.26-.05.75.75,0,0,1-.2-.15.69.69,0,0,1-.18-.52,2.73,2.73,0,0,1,0-.37c0-.14.06-.29.1-.46s.09-.33.13-.49.08-.3.11-.43,0-.25.07-.35a1.28,1.28,0,0,0,0-.26.6.6,0,0,0-.09-.36.37.37,0,0,0-.29-.11.65.65,0,0,0-.26.06,1.34,1.34,0,0,0-.27.17,2.17,2.17,0,0,0-.27.26,1.83,1.83,0,0,0-.24.31,4,4,0,0,0-.2.35,2.53,2.53,0,0,0-.12.36l-.44,2H71.3l.59-2.56c0-.13.06-.25.08-.36s0-.2,0-.27-.08-.28-.23-.28a.4.4,0,0,0-.15,0l-.15.09-.17.15-.22.21L70.8,9.5c.13-.13.25-.25.36-.34a2,2,0,0,1,.31-.24,1.3,1.3,0,0,1,.3-.13.94.94,0,0,1,.3,0,.59.59,0,0,1,.45.19.76.76,0,0,1,.16.51.92.92,0,0,1,0,.16,1.09,1.09,0,0,1,0,.17Z"/>
    <path class="a" d="M79.2,7.74a6.74,6.74,0,0,0-.6-3A3.06,3.06,0,0,0,76.73,3.1l.14-.42a3.91,3.91,0,0,1,2.42,1.8,6.23,6.23,0,0,1,.84,3.32,6.23,6.23,0,0,1-.84,3.32,3.87,3.87,0,0,1-2.42,1.79l-.13-.42a3.11,3.11,0,0,0,1.86-1.63A7.11,7.11,0,0,0,79.2,7.74Z"/>
    <path class="a" d="M57.31,22.56a1.83,1.83,0,0,1,.77.57,1.4,1.4,0,0,1,.27.84A2.22,2.22,0,0,1,58,25.2,2.33,2.33,0,0,1,57,26a4.61,4.61,0,0,1-1.92.31h-2.4l.06-.26a.7.7,0,0,0,.31-.11.69.69,0,0,0,.17-.2,1.52,1.52,0,0,0,.13-.31q.06-.19.18-.72l.91-4.15a4.23,4.23,0,0,0,.12-.86.46.46,0,0,0-.12-.36.71.71,0,0,0-.41-.12l.06-.27h2.67a4.18,4.18,0,0,1,1.3.17,1.43,1.43,0,0,1,.71.5,1.38,1.38,0,0,1,.23.83,1.86,1.86,0,0,1-.43,1.23,2.72,2.72,0,0,1-1.28.81v0Zm-1.49-.29a3.93,3.93,0,0,0,1-.1,1.55,1.55,0,0,0,.66-.37,1.57,1.57,0,0,0,.42-.58,2,2,0,0,0,.13-.73,1.26,1.26,0,0,0-.08-.43.83.83,0,0,0-.28-.34,1.14,1.14,0,0,0-.46-.21,3,3,0,0,0-.68-.06h-.87l-.61,2.81Zm-1.54,3.57.81,0a3,3,0,0,0,1.23-.19A1.64,1.64,0,0,0,57,25a2.12,2.12,0,0,0,.29-1.17A1,1,0,0,0,57,23a1.78,1.78,0,0,0-1.07-.27H55Z"/>
    <path class="a" d="M62,23.6a7.11,7.11,0,0,0,.6,3.12,3.1,3.1,0,0,0,1.85,1.63l-.13.42A3.9,3.9,0,0,1,61.89,27a6.23,6.23,0,0,1-.84-3.32,6.14,6.14,0,0,1,.85-3.32,3.89,3.89,0,0,1,2.41-1.8l.15.42a3.15,3.15,0,0,0-1.87,1.62A6.74,6.74,0,0,0,62,23.6Z"/>
    <path class="a" d="M68.39,25.31a3.8,3.8,0,0,1-.9.84,1.72,1.72,0,0,1-.91.27,1,1,0,0,1-1.13-1.14,3.49,3.49,0,0,1,.09-.76l.64-2.8h-.91l.08-.37a1.93,1.93,0,0,0,.49-.05.85.85,0,0,0,.27-.12.67.67,0,0,0,.2-.21,2,2,0,0,0,.18-.36c.06-.15.15-.4.26-.76h.74l-.29,1.33h1.64l-.12.54H67.08l-.48,2.1q-.13.6-.18.87c0,.18,0,.32,0,.43,0,.45.19.67.56.67a.88.88,0,0,0,.5-.18,3.55,3.55,0,0,0,.64-.62Z"/>
    <path class="a" d="M70.87,25.64a4,4,0,0,1,.75-.78,1.37,1.37,0,0,1,.77-.26.79.79,0,0,1,.62.23.89.89,0,0,1,.21.63,1.6,1.6,0,0,1,0,.33c0,.15-.05.3-.09.47s-.07.35-.11.53-.08.34-.12.5-.07.28-.09.38a1,1,0,0,0,0,.2.32.32,0,0,0,.06.22.21.21,0,0,0,.17.07.4.4,0,0,0,.15,0l.15-.09.18-.15.21-.22.27.26-.35.34a2.79,2.79,0,0,1-.32.23,1.35,1.35,0,0,1-.3.14,1.08,1.08,0,0,1-.32,0,.58.58,0,0,1-.26-.05.75.75,0,0,1-.2-.15A.69.69,0,0,1,72,28a2.73,2.73,0,0,1,0-.37c0-.14.06-.29.1-.46s.09-.33.13-.49.08-.3.11-.43,0-.25.07-.35a1.28,1.28,0,0,0,0-.26.6.6,0,0,0-.09-.36.37.37,0,0,0-.29-.11.65.65,0,0,0-.26.06,1.34,1.34,0,0,0-.27.17,2.17,2.17,0,0,0-.27.26,1.83,1.83,0,0,0-.24.31,4,4,0,0,0-.2.35,2.53,2.53,0,0,0-.12.36l-.44,2H69.5l.59-2.56c0-.13.06-.25.08-.36s0-.2,0-.27-.08-.28-.23-.28a.4.4,0,0,0-.15,0,.85.85,0,0,0-.15.09l-.17.15-.22.21L69,25.36c.13-.13.25-.25.36-.34a2,2,0,0,1,.31-.24,1.3,1.3,0,0,1,.3-.13.94.94,0,0,1,.3,0,.59.59,0,0,1,.45.19.76.76,0,0,1,.16.51.92.92,0,0,1,0,.16,1.09,1.09,0,0,1-.05.17Z"/>
    <path class="a" d="M77.4,23.6a6.74,6.74,0,0,0-.6-3A3.12,3.12,0,0,0,74.93,19l.14-.42a3.91,3.91,0,0,1,2.42,1.8,6.23,6.23,0,0,1,.84,3.32A6.23,6.23,0,0,1,77.49,27a3.87,3.87,0,0,1-2.42,1.79l-.13-.42a3.11,3.11,0,0,0,1.86-1.63A7.11,7.11,0,0,0,77.4,23.6Z"/>
    <rect x="50.6" y="15.39" width="30.36" height="0.72"/>
    <polygon class="a" points="88.09 16.44 87.74 17.03 86.35 16.06 86.51 17.75 85.8 17.75 85.96 16.06 84.57 17.03 84.21 16.44 85.75 15.71 84.21 15 84.57 14.39 85.96 15.37 85.8 13.68 86.51 13.68 86.35 15.37 87.74 14.39 88.09 15 86.55 15.71 88.09 16.44"/>
    <polygon class="a" points="94.97 14.11 92.51 14.11 92.51 0.77 94.97 0.77 94.97 1.21 93.51 1.21 93.51 13.67 94.97 13.67 94.97 14.11"/>
    <path class="a" d="M96.65,10h1.73a1.72,1.72,0,0,0,.44-.05.83.83,0,0,0,.3-.14,1.46,1.46,0,0,0,.27-.24,3.29,3.29,0,0,0,.27-.39,6.26,6.26,0,0,0,.32-.64h.51l-.41,2H95.3l0-.26,4.9-6.6H98.59a2,2,0,0,0-.48.05.82.82,0,0,0-.33.2,1.86,1.86,0,0,0-.32.38,5.52,5.52,0,0,0-.39.7h-.52L97,3.11h4.67l-.06.26Z"/>
    <path class="a" d="M103.59,4.41A5.14,5.14,0,0,0,104,6.67a2.21,2.21,0,0,0,1.35,1.19l-.1.31a2.87,2.87,0,0,1-1.76-1.3,4.56,4.56,0,0,1-.61-2.42A4.51,4.51,0,0,1,103.52,2,2.85,2.85,0,0,1,105.28.72l.11.3A2.27,2.27,0,0,0,104,2.2,5,5,0,0,0,103.59,4.41Z"/>
    <path class="a" d="M108,.84l-.19.85H107l.19-.85ZM107.06,5c0,.15-.06.28-.08.37a2.32,2.32,0,0,0,0,.24.32.32,0,0,0,.06.22.21.21,0,0,0,.18.07.32.32,0,0,0,.14,0l.16-.09.17-.15a2.27,2.27,0,0,0,.22-.22l.26.26a3.81,3.81,0,0,1-.37.35,1.9,1.9,0,0,1-.31.23,1,1,0,0,1-.3.13,1,1,0,0,1-.3,0,.59.59,0,0,1-.27,0,.8.8,0,0,1-.21-.15.86.86,0,0,1-.13-.23.94.94,0,0,1-.05-.3,1.45,1.45,0,0,1,0-.32,3.83,3.83,0,0,1,.08-.42c0-.15.06-.31.1-.47l.12-.49c0-.16.07-.32.1-.47s0-.29.07-.41V3a.28.28,0,0,0-.1-.23.87.87,0,0,0-.36-.08l0-.26,1.14-.05h.19Z"/>
    <path class="a" d="M110.51,4.41a4.83,4.83,0,0,0-.44-2.21A2.24,2.24,0,0,0,108.71,1l.11-.3A2.85,2.85,0,0,1,110.58,2a4.51,4.51,0,0,1,.61,2.42,4.56,4.56,0,0,1-.61,2.42,2.87,2.87,0,0,1-1.76,1.3l-.1-.31a2.21,2.21,0,0,0,1.35-1.19A5,5,0,0,0,110.51,4.41Z"/>
    <path class="a" d="M114.31,7.38a7.11,7.11,0,0,0,.6,3.12,3.1,3.1,0,0,0,1.85,1.63l-.13.42a3.9,3.9,0,0,1-2.42-1.79,6.23,6.23,0,0,1-.84-3.32,6.14,6.14,0,0,1,.85-3.32,3.89,3.89,0,0,1,2.41-1.8l.15.42a3.09,3.09,0,0,0-1.87,1.62A6.74,6.74,0,0,0,114.31,7.38Z"/>
    <path class="a" d="M120.71,9.45a3.8,3.8,0,0,1-.9.84,1.72,1.72,0,0,1-.91.27,1,1,0,0,1-1.13-1.14,3.49,3.49,0,0,1,.09-.76l.64-2.8h-.91l.08-.37a1.93,1.93,0,0,0,.49,0,.85.85,0,0,0,.27-.12.67.67,0,0,0,.2-.21,2,2,0,0,0,.18-.36c.06-.15.15-.4.26-.76h.74l-.29,1.33h1.64l-.12.54H119.4L118.92,8q-.14.6-.18.87c0,.18,0,.32,0,.43,0,.45.19.67.56.67a.88.88,0,0,0,.5-.18,3.55,3.55,0,0,0,.64-.62Z"/>
    <path class="a" d="M123.19,9.78a4,4,0,0,1,.75-.78,1.37,1.37,0,0,1,.77-.26.79.79,0,0,1,.62.23.89.89,0,0,1,.21.63,1.6,1.6,0,0,1,0,.33q0,.23-.09.48c0,.17-.07.34-.11.52s-.08.34-.12.5-.07.28-.09.38,0,.18,0,.2a.32.32,0,0,0,.06.22.18.18,0,0,0,.17.07l.15,0a.6.6,0,0,0,.15-.09,2,2,0,0,0,.18-.15l.21-.22.27.26-.35.34a2.79,2.79,0,0,1-.32.23,1.35,1.35,0,0,1-.3.14,1.08,1.08,0,0,1-.32,0,.58.58,0,0,1-.26-.05.75.75,0,0,1-.2-.15.69.69,0,0,1-.18-.52,2.73,2.73,0,0,1,0-.37c0-.14.06-.29.1-.46s.09-.33.13-.49.08-.3.11-.43,0-.25.07-.35a1.28,1.28,0,0,0,0-.26.6.6,0,0,0-.09-.36.37.37,0,0,0-.29-.11.65.65,0,0,0-.26.06,1.34,1.34,0,0,0-.27.17,2.17,2.17,0,0,0-.27.26,1.83,1.83,0,0,0-.24.31,2.37,2.37,0,0,0-.19.35,1.74,1.74,0,0,0-.13.36l-.44,2h-.77l.59-2.56a3,3,0,0,0,.08-.36c0-.11,0-.2,0-.27s-.08-.28-.23-.28l-.15,0a.85.85,0,0,0-.15.09l-.17.15-.22.21-.27-.26c.13-.13.25-.25.36-.34a2,2,0,0,1,.31-.24,1.3,1.3,0,0,1,.3-.13.94.94,0,0,1,.3,0,.56.56,0,0,1,.45.19.76.76,0,0,1,.16.51.92.92,0,0,1,0,.16,1.09,1.09,0,0,1,0,.17Z"/>
    <rect x="126.99" y="10.15" width="4.52" height="0.6"/>
    <path class="a" d="M135.07,11.72a1.34,1.34,0,0,0,0,.21.57.57,0,0,0,0,.15.3.3,0,0,0,0,.1.46.46,0,0,0,.07.07.24.24,0,0,0,.13.08l.2,0,.29,0h.41v.34h-3.11v-.34l.39,0,.27,0,.19,0,.12-.06.09-.07a.2.2,0,0,0,.06-.11.54.54,0,0,0,0-.15,1.41,1.41,0,0,0,0-.22V8.9a.36.36,0,0,0-.05-.21.21.21,0,0,0-.17-.07.82.82,0,0,0-.36.13c-.16.08-.37.21-.62.37a1.62,1.62,0,0,1-.1-.18l-.09-.18,1-.54,1-.52h.24c0,.14,0,.27,0,.38s0,.23,0,.33v3.31Z"/>
    <path class="a" d="M140.06,7.38a6.74,6.74,0,0,0-.6-3,3.06,3.06,0,0,0-1.87-1.62l.14-.42a3.91,3.91,0,0,1,2.42,1.8A6.23,6.23,0,0,1,141,7.44a6.23,6.23,0,0,1-.84,3.32,3.87,3.87,0,0,1-2.42,1.79l-.13-.42a3.11,3.11,0,0,0,1.86-1.63A7.11,7.11,0,0,0,140.06,7.38Z"/>
    <rect x="145.15" y="6.96" width="6.64" height="0.72"/>
    <path class="a" d="M156.43,10h1.73a1.72,1.72,0,0,0,.44-.05.83.83,0,0,0,.3-.14,1.46,1.46,0,0,0,.27-.24,3.29,3.29,0,0,0,.27-.39,6.26,6.26,0,0,0,.32-.64h.51l-.41,2h-4.78l0-.26,4.9-6.6h-1.66a2,2,0,0,0-.48.05.82.82,0,0,0-.33.2,1.86,1.86,0,0,0-.32.38,5.52,5.52,0,0,0-.39.7h-.52l.4-1.83h4.67l-.06.26Z"/>
    <path class="a" d="M163.77,11.72c0,.08,0,.15,0,.21a.57.57,0,0,0,0,.15.3.3,0,0,0,0,.1l.07.07a.24.24,0,0,0,.13.08l.2,0,.29,0H165v.34h-3.11v-.34l.39,0,.27,0,.19,0,.12-.06.09-.07a.2.2,0,0,0,.06-.11.54.54,0,0,0,0-.15,1.41,1.41,0,0,0,0-.22V8.9a.3.3,0,0,0,0-.21.21.21,0,0,0-.17-.07.82.82,0,0,0-.36.13c-.16.08-.37.21-.62.37a1.62,1.62,0,0,1-.1-.18l-.09-.18,1-.54,1-.52h.24c0,.14,0,.27,0,.38s0,.23,0,.33v3.31Z"/>
    <path class="a" d="M167.45,3.69A5.14,5.14,0,0,0,167.89,6a2.21,2.21,0,0,0,1.35,1.19l-.1.31a2.87,2.87,0,0,1-1.76-1.3,4.56,4.56,0,0,1-.61-2.42,4.51,4.51,0,0,1,.61-2.42A2.85,2.85,0,0,1,169.14,0l.11.3a2.27,2.27,0,0,0-1.36,1.18A5,5,0,0,0,167.45,3.69Z"/>
    <path class="a" d="M171.86.12l-.19.85h-.78l.19-.85Zm-.94,4.2c0,.15-.06.28-.08.37a2.32,2.32,0,0,0,0,.24.32.32,0,0,0,.06.22.21.21,0,0,0,.18.07.32.32,0,0,0,.14,0l.16-.09.17-.15.22-.22L172,5a3.81,3.81,0,0,1-.37.35,1.9,1.9,0,0,1-.31.23,1,1,0,0,1-.3.13,1,1,0,0,1-.3,0,.59.59,0,0,1-.27,0,.8.8,0,0,1-.21-.15.86.86,0,0,1-.13-.23.94.94,0,0,1-.05-.3,1.45,1.45,0,0,1,0-.32,3.83,3.83,0,0,1,.08-.42c0-.15.06-.31.1-.47l.12-.49c0-.16.07-.32.1-.47s.05-.29.07-.41V2.32a.28.28,0,0,0-.1-.23.87.87,0,0,0-.36-.08l0-.26,1.14-.05h.19Z"/>
    <path class="a" d="M174.37,3.69a4.83,4.83,0,0,0-.44-2.21A2.24,2.24,0,0,0,172.57.3l.11-.3a2.85,2.85,0,0,1,1.76,1.31,4.51,4.51,0,0,1,.61,2.42,4.56,4.56,0,0,1-.61,2.42,2.87,2.87,0,0,1-1.76,1.3l-.1-.31A2.21,2.21,0,0,0,173.93,6,5,5,0,0,0,174.37,3.69Z"/>
    <path class="a" d="M178.17,7.38a7.11,7.11,0,0,0,.6,3.12,3.1,3.1,0,0,0,1.85,1.63l-.13.42a3.9,3.9,0,0,1-2.42-1.79,6.23,6.23,0,0,1-.84-3.32,6.14,6.14,0,0,1,.85-3.32,3.89,3.89,0,0,1,2.41-1.8l.15.42a3.09,3.09,0,0,0-1.87,1.62A6.74,6.74,0,0,0,178.17,7.38Z"/>
    <path class="a" d="M184.57,9.45a3.8,3.8,0,0,1-.9.84,1.72,1.72,0,0,1-.91.27,1,1,0,0,1-1.13-1.14,3.49,3.49,0,0,1,.09-.76l.64-2.8h-.91l.08-.37a1.93,1.93,0,0,0,.49,0,.85.85,0,0,0,.27-.12.67.67,0,0,0,.2-.21,2,2,0,0,0,.18-.36c.06-.15.15-.4.26-.76h.74l-.29,1.33H185l-.12.54h-1.64L182.78,8q-.14.6-.18.87c0,.18,0,.32,0,.43,0,.45.19.67.56.67a.88.88,0,0,0,.5-.18,3.55,3.55,0,0,0,.64-.62Z"/>
    <path class="a" d="M187.05,9.78A4,4,0,0,1,187.8,9a1.37,1.37,0,0,1,.77-.26.79.79,0,0,1,.62.23.89.89,0,0,1,.21.63,1.6,1.6,0,0,1,0,.33q0,.23-.09.48c0,.17-.07.34-.11.52s-.08.34-.12.5-.07.28-.09.38,0,.18,0,.2a.32.32,0,0,0,.06.22.18.18,0,0,0,.17.07.4.4,0,0,0,.15,0,.6.6,0,0,0,.15-.09,2,2,0,0,0,.18-.15l.21-.22.27.26-.35.34a2.79,2.79,0,0,1-.32.23,1.35,1.35,0,0,1-.3.14,1.08,1.08,0,0,1-.32,0,.58.58,0,0,1-.26-.05.75.75,0,0,1-.2-.15.69.69,0,0,1-.18-.52,2.73,2.73,0,0,1,0-.37c0-.14.06-.29.1-.46s.09-.33.13-.49.08-.3.11-.43.05-.25.07-.35a1.28,1.28,0,0,0,0-.26.6.6,0,0,0-.09-.36.37.37,0,0,0-.29-.11.65.65,0,0,0-.26.06,1.34,1.34,0,0,0-.27.17,2.17,2.17,0,0,0-.27.26,1.83,1.83,0,0,0-.24.31,2.37,2.37,0,0,0-.19.35,1.74,1.74,0,0,0-.13.36l-.44,2h-.77l.59-2.56a3,3,0,0,0,.08-.36c0-.11,0-.2,0-.27s-.08-.28-.23-.28a.4.4,0,0,0-.15,0,.85.85,0,0,0-.15.09l-.17.15-.22.21-.27-.26c.13-.13.25-.25.36-.34a2,2,0,0,1,.31-.24,1.3,1.3,0,0,1,.3-.13.94.94,0,0,1,.3,0,.56.56,0,0,1,.45.19.76.76,0,0,1,.16.51.92.92,0,0,1,0,.16,1.09,1.09,0,0,1-.05.17Z"/>
    <path class="a" d="M193.46,7.38a6.74,6.74,0,0,0-.6-3A3.06,3.06,0,0,0,191,2.74l.14-.42a3.91,3.91,0,0,1,2.42,1.8,6.23,6.23,0,0,1,.84,3.32,6.23,6.23,0,0,1-.84,3.32,3.87,3.87,0,0,1-2.42,1.79l-.13-.42a3.11,3.11,0,0,0,1.86-1.63A7.11,7.11,0,0,0,193.46,7.38Z"/>
    <polygon class="a" points="202.25 7.67 202.25 10.78 201.48 10.78 201.48 7.67 198.55 7.67 198.55 6.96 201.48 6.96 201.48 3.85 202.25 3.85 202.25 6.96 205.19 6.96 205.19 7.67 202.25 7.67"/>
    <path class="a" d="M209.83,10h1.73a1.72,1.72,0,0,0,.44-.05.83.83,0,0,0,.3-.14,1.46,1.46,0,0,0,.27-.24,3.29,3.29,0,0,0,.27-.39,6.26,6.26,0,0,0,.32-.64h.51l-.41,2h-4.78l.05-.26,4.9-6.6h-1.66a2,2,0,0,0-.48.05.82.82,0,0,0-.33.2,1.86,1.86,0,0,0-.32.38,5.52,5.52,0,0,0-.39.7h-.52l.4-1.83h4.67l-.06.26Z"/>
    <path class="a" d="M217.39,12.11h.3a.48.48,0,0,0,.18-.06.31.31,0,0,0,.12-.15,1.29,1.29,0,0,0,.12-.26h.37c0,.19,0,.37,0,.56s0,.38,0,.56h-3.32v-.2a2.82,2.82,0,0,1,.22-.42,3.41,3.41,0,0,1,.28-.42c.1-.14.22-.28.36-.44s.28-.3.44-.46.45-.46.6-.63a3.91,3.91,0,0,0,.37-.47,1.61,1.61,0,0,0,.18-.38,1.38,1.38,0,0,0,.05-.37,1,1,0,0,0-.06-.36.81.81,0,0,0-.16-.29.77.77,0,0,0-.27-.19,1.08,1.08,0,0,0-.38-.06.92.92,0,0,0-.61.2,1.27,1.27,0,0,0-.38.57h-.52V8.07a6.74,6.74,0,0,1,.93-.31,3.63,3.63,0,0,1,.76-.09,2.31,2.31,0,0,1,.69.09,1.3,1.3,0,0,1,.47.25.84.84,0,0,1,.26.38,1.19,1.19,0,0,1,.08.47,1.37,1.37,0,0,1,0,.29,1.45,1.45,0,0,1-.07.26,1.57,1.57,0,0,1-.14.25,2.42,2.42,0,0,1-.22.28c-.06.08-.15.18-.25.29l-.35.35q-.18.2-.39.39l-.39.41q-.19.19-.36.39c-.1.12-.19.24-.26.34Z"/>
    <path class="a" d="M221.09,3.69A5.14,5.14,0,0,0,221.53,6a2.21,2.21,0,0,0,1.35,1.19l-.1.31A2.87,2.87,0,0,1,221,6.15a4.56,4.56,0,0,1-.61-2.42A4.51,4.51,0,0,1,221,1.31,2.85,2.85,0,0,1,222.78,0l.11.3a2.27,2.27,0,0,0-1.36,1.18A5,5,0,0,0,221.09,3.69Z"/>
    <path class="a" d="M225.5.12l-.19.85h-.78l.19-.85Zm-.94,4.2c0,.15-.06.28-.08.37a2.32,2.32,0,0,0,0,.24.32.32,0,0,0,.06.22.21.21,0,0,0,.18.07.32.32,0,0,0,.14,0L225,5.1l.17-.15a2.27,2.27,0,0,0,.22-.22l.26.26a3.81,3.81,0,0,1-.37.35,1.9,1.9,0,0,1-.31.23,1,1,0,0,1-.3.13,1,1,0,0,1-.3,0,.59.59,0,0,1-.27,0,.8.8,0,0,1-.21-.15.86.86,0,0,1-.13-.23.94.94,0,0,1,0-.3,1.45,1.45,0,0,1,0-.32,3.83,3.83,0,0,1,.08-.42c0-.15.06-.31.1-.47l.12-.49c0-.16.07-.32.1-.47s0-.29.07-.41V2.32a.28.28,0,0,0-.1-.23.87.87,0,0,0-.36-.08l.05-.26L225,1.7h.19Z"/>
    <path class="a" d="M228,3.69a4.83,4.83,0,0,0-.44-2.21A2.24,2.24,0,0,0,226.21.3l.11-.3a2.85,2.85,0,0,1,1.76,1.31,4.51,4.51,0,0,1,.61,2.42,4.56,4.56,0,0,1-.61,2.42,2.87,2.87,0,0,1-1.76,1.3l-.1-.31A2.21,2.21,0,0,0,227.57,6,5,5,0,0,0,228,3.69Z"/>
    <path class="a" d="M231.81,7.74a7.11,7.11,0,0,0,.6,3.12,3.1,3.1,0,0,0,1.85,1.63l-.13.42a3.9,3.9,0,0,1-2.42-1.79,6.23,6.23,0,0,1-.84-3.32,6.14,6.14,0,0,1,.85-3.32,3.89,3.89,0,0,1,2.41-1.8l.15.42a3.09,3.09,0,0,0-1.87,1.62A6.74,6.74,0,0,0,231.81,7.74Z"/>
    <path class="a" d="M238.21,9.45a3.8,3.8,0,0,1-.9.84,1.72,1.72,0,0,1-.91.27,1,1,0,0,1-1.13-1.14,3.49,3.49,0,0,1,.09-.76l.64-2.8h-.91l.08-.37a1.93,1.93,0,0,0,.49,0,.85.85,0,0,0,.27-.12.67.67,0,0,0,.2-.21,2,2,0,0,0,.18-.36c.06-.15.15-.4.26-.76h.74L237,5.32h1.64l-.12.54H236.9L236.42,8q-.13.6-.18.87c0,.18,0,.32,0,.43,0,.45.19.67.56.67a.88.88,0,0,0,.5-.18,3.55,3.55,0,0,0,.64-.62Z"/>
    <path class="a" d="M240.69,9.78a4,4,0,0,1,.75-.78,1.37,1.37,0,0,1,.77-.26.79.79,0,0,1,.62.23.89.89,0,0,1,.21.63,1.6,1.6,0,0,1,0,.33q0,.23-.09.48c0,.17-.07.34-.11.52s-.08.34-.12.5-.07.28-.09.38,0,.18,0,.2a.32.32,0,0,0,.06.22.18.18,0,0,0,.17.07.4.4,0,0,0,.15,0l.15-.09.18-.15.21-.22.27.26-.35.34a2.79,2.79,0,0,1-.32.23,1.35,1.35,0,0,1-.3.14,1.08,1.08,0,0,1-.32,0,.58.58,0,0,1-.26-.05.75.75,0,0,1-.2-.15.69.69,0,0,1-.18-.52,2.73,2.73,0,0,1,0-.37c0-.14.06-.29.1-.46s.09-.33.13-.49.08-.3.11-.43,0-.25.07-.35a1.28,1.28,0,0,0,0-.26.6.6,0,0,0-.09-.36.37.37,0,0,0-.29-.11.65.65,0,0,0-.26.06,1.34,1.34,0,0,0-.27.17,2.17,2.17,0,0,0-.27.26,1.83,1.83,0,0,0-.24.31,2.37,2.37,0,0,0-.19.35,1.74,1.74,0,0,0-.13.36l-.44,2h-.77l.59-2.56a3,3,0,0,0,.08-.36c0-.11,0-.2,0-.27s-.08-.28-.23-.28a.4.4,0,0,0-.15,0l-.15.09-.17.15-.22.21-.27-.26c.13-.13.25-.25.36-.34a2,2,0,0,1,.31-.24,1.3,1.3,0,0,1,.3-.13.94.94,0,0,1,.3,0,.56.56,0,0,1,.45.19.76.76,0,0,1,.16.51.92.92,0,0,1,0,.16,1.09,1.09,0,0,1-.05.17Z"/>
    <path class="a" d="M247.1,7.74a6.74,6.74,0,0,0-.6-3,3.06,3.06,0,0,0-1.87-1.62l.14-.42a3.91,3.91,0,0,1,2.42,1.8A6.23,6.23,0,0,1,248,7.8a6.23,6.23,0,0,1-.84,3.32,3.87,3.87,0,0,1-2.42,1.79l-.13-.42a3.11,3.11,0,0,0,1.86-1.63A7.11,7.11,0,0,0,247.1,7.74Z"/>
    <polygon class="a" points="249.22 13.67 250.68 13.67 250.68 1.21 249.22 1.21 249.22 0.77 251.68 0.77 251.68 14.11 249.22 14.11 249.22 13.67"/>
    <polygon class="a" points="262.7 12.46 260.29 12.46 260.29 2.18 262.7 2.18 262.7 2.6 261.19 2.6 261.19 12.05 262.7 12.05 262.7 12.46"/>
    <path class="a" d="M263.3,10.21a.7.7,0,0,0,.31-.11.69.69,0,0,0,.17-.2,1.81,1.81,0,0,0,.13-.31q.06-.19.18-.72L265,4.72a4.22,4.22,0,0,0,.12-.87.43.43,0,0,0-.13-.36.74.74,0,0,0-.4-.11l.06-.27h2.16l-.06.27a.78.78,0,0,0-.29.1.41.41,0,0,0-.16.16,1.3,1.3,0,0,0-.15.33c0,.16-.11.41-.19.75L264.81,10h1.32a2,2,0,0,0,.57-.07,1.19,1.19,0,0,0,.4-.26,2.4,2.4,0,0,0,.36-.5,6.22,6.22,0,0,0,.36-.8h.52l-.54,2.12h-4.56Z"/>
    <path class="a" d="M278.27,10.47H276l.06-.26a.89.89,0,0,0,.31-.09.42.42,0,0,0,.18-.17,1,1,0,0,0,.16-.35c.05-.16.11-.41.19-.73l1.15-5.28h-.69a1.14,1.14,0,0,0-.53.1,1.17,1.17,0,0,0-.4.36,5.22,5.22,0,0,0-.48.88h-.52l.4-1.82h5.63L281,5h-.52c0-.35,0-.61,0-.78a1.07,1.07,0,0,0-.11-.4.42.42,0,0,0-.18-.19,1.18,1.18,0,0,0-.39-.05H279L277.85,8.9c0,.14-.05.26-.07.34l0,.26a2.09,2.09,0,0,0,0,.24.52.52,0,0,0,.05.27.29.29,0,0,0,.16.13,1.61,1.61,0,0,0,.37.07Z"/>
    <polygon class="a" points="274.72 2.4 270.31 12.43 269.48 12.43 273.9 2.4 274.72 2.4"/>
    <polygon class="a" points="282.12 12.05 283.63 12.05 283.63 2.6 282.12 2.6 282.12 2.18 284.53 2.18 284.53 12.46 282.12 12.46 282.12 12.05"/>
    <polygon class="a" points="258.76 1.09 254 13.54 253.21 13.54 257.98 1.09 258.76 1.09"/>
    <polygon class="a" points="116.76 28.32 114.35 28.32 114.35 18.04 116.76 18.04 116.76 18.46 115.25 18.46 115.25 27.91 116.76 27.91 116.76 28.32"/>
    <path class="a" d="M119.61,22.3h.18a1.07,1.07,0,0,0,.41-.07,2.36,2.36,0,0,0,.43-.28c.17-.13.43-.38.79-.73s.62-.63.77-.81a2.93,2.93,0,0,0,.34-.48.82.82,0,0,0,.1-.37.26.26,0,0,0-.1-.22.57.57,0,0,0-.31-.1l.06-.27h2.31l-.06.27a1.15,1.15,0,0,0-.49.22,7.9,7.9,0,0,0-.83.75l-2.09,2L122.27,25a4.52,4.52,0,0,0,.29.61.9.9,0,0,0,.28.3,1.11,1.11,0,0,0,.4.15l-.06.26H121.1l.06-.26c.19,0,.29-.11.29-.26a1.05,1.05,0,0,0-.06-.33c0-.13-.09-.25-.14-.39l-.7-1.71a2.3,2.3,0,0,0-.22-.43.53.53,0,0,0-.19-.18.89.89,0,0,0-.32,0h-.3l-.45,2a4,4,0,0,0-.09.51,2.12,2.12,0,0,0,0,.34.43.43,0,0,0,.12.34.83.83,0,0,0,.41.12l-.06.26h-2.16l.06-.26a.7.7,0,0,0,.31-.11.69.69,0,0,0,.17-.2,1.52,1.52,0,0,0,.13-.31q.06-.19.18-.72l.91-4.15a4.22,4.22,0,0,0,.12-.87.43.43,0,0,0-.13-.36.74.74,0,0,0-.4-.11l.06-.27h2.16l-.06.27a.78.78,0,0,0-.29.1.41.41,0,0,0-.16.16,1.3,1.3,0,0,0-.15.33c-.05.16-.11.41-.19.75Z"/>
    <path class="a" d="M126.79,23.24a7.11,7.11,0,0,0,.6,3.12A3.1,3.1,0,0,0,129.24,28l-.13.42a3.9,3.9,0,0,1-2.42-1.79,6.23,6.23,0,0,1-.84-3.32A6.14,6.14,0,0,1,126.7,20a3.89,3.89,0,0,1,2.41-1.8l.15.42a3.15,3.15,0,0,0-1.87,1.62A6.74,6.74,0,0,0,126.79,23.24Z"/>
    <path class="a" d="M133.19,25.31a3.8,3.8,0,0,1-.9.84,1.72,1.72,0,0,1-.91.27,1,1,0,0,1-1.13-1.14,3.49,3.49,0,0,1,.09-.76l.64-2.8h-.91l.08-.37a1.93,1.93,0,0,0,.49-.05.85.85,0,0,0,.27-.12.67.67,0,0,0,.2-.21,2,2,0,0,0,.18-.36c.06-.15.15-.4.26-.76h.74L132,21.18h1.64l-.12.54h-1.64l-.48,2.1q-.14.6-.18.87c0,.18,0,.32,0,.43,0,.45.19.67.56.67a.88.88,0,0,0,.5-.18,3.55,3.55,0,0,0,.64-.62Z"/>
    <path class="a" d="M135.67,25.64a4,4,0,0,1,.75-.78,1.37,1.37,0,0,1,.77-.26.79.79,0,0,1,.62.23.89.89,0,0,1,.21.63,1.6,1.6,0,0,1,0,.33c0,.15,0,.3-.09.47s-.07.35-.11.53-.08.34-.12.5-.07.28-.09.38a1,1,0,0,0,0,.2.32.32,0,0,0,.06.22.21.21,0,0,0,.17.07.4.4,0,0,0,.15,0,.6.6,0,0,0,.15-.09,2,2,0,0,0,.18-.15l.21-.22.27.26-.35.34a2.79,2.79,0,0,1-.32.23,1.35,1.35,0,0,1-.3.14,1.08,1.08,0,0,1-.32,0,.58.58,0,0,1-.26-.05.75.75,0,0,1-.2-.15.69.69,0,0,1-.18-.52,2.73,2.73,0,0,1,0-.37c0-.14.06-.29.1-.46s.09-.33.13-.49.08-.3.11-.43.05-.25.07-.35a1.28,1.28,0,0,0,0-.26.6.6,0,0,0-.09-.36.37.37,0,0,0-.29-.11.65.65,0,0,0-.26.06,1.34,1.34,0,0,0-.27.17,2.17,2.17,0,0,0-.27.26,1.83,1.83,0,0,0-.24.31,4,4,0,0,0-.2.35,2.53,2.53,0,0,0-.12.36l-.44,2h-.77l.59-2.56c0-.13.06-.25.08-.36s0-.2,0-.27-.08-.28-.23-.28a.4.4,0,0,0-.15,0,.85.85,0,0,0-.15.09l-.17.15-.22.21-.27-.26c.13-.13.25-.25.36-.34a2,2,0,0,1,.31-.24,1.3,1.3,0,0,1,.3-.13.94.94,0,0,1,.3,0,.59.59,0,0,1,.45.19.76.76,0,0,1,.16.51.92.92,0,0,1,0,.16,1.09,1.09,0,0,1,0,.17Z"/>
    <rect x="139.73" y="26.01" width="4.52" height="0.6"/>
    <path class="a" d="M147.81,27.58a1.34,1.34,0,0,0,0,.21.8.8,0,0,0,0,.15.3.3,0,0,0,0,.1l.07.07a.24.24,0,0,0,.13.08l.2,0,.29,0H149v.34h-3.11v-.34l.39,0,.27,0,.19,0,.12-.06.09-.07A.24.24,0,0,0,147,28a.54.54,0,0,0,0-.15,1.41,1.41,0,0,0,0-.22V24.76a.3.3,0,0,0-.05-.21.21.21,0,0,0-.17-.07.82.82,0,0,0-.36.13c-.16.08-.37.21-.62.37a1.62,1.62,0,0,1-.1-.18l-.09-.18,1-.54,1-.52h.24c0,.14,0,.27,0,.38s0,.23,0,.33v3.31Z"/>
    <path class="a" d="M152.78,23.24a6.74,6.74,0,0,0-.6-3,3.12,3.12,0,0,0-1.87-1.62l.14-.42a3.91,3.91,0,0,1,2.42,1.8,6.23,6.23,0,0,1,.84,3.32,6.23,6.23,0,0,1-.84,3.32,3.87,3.87,0,0,1-2.42,1.79l-.13-.42a3.11,3.11,0,0,0,1.86-1.63A7.11,7.11,0,0,0,152.78,23.24Z"/>
    <polygon class="a" points="161.45 23.54 161.45 26.64 160.68 26.64 160.68 23.54 157.75 23.54 157.75 22.82 160.68 22.82 160.68 19.71 161.45 19.71 161.45 22.82 164.39 22.82 164.39 23.54 161.45 23.54"/>
    <path class="a" d="M169.53,23.6a7.11,7.11,0,0,0,.6,3.12A3.1,3.1,0,0,0,172,28.35l-.13.42A3.9,3.9,0,0,1,169.43,27a6.23,6.23,0,0,1-.84-3.32,6.14,6.14,0,0,1,.85-3.32,3.89,3.89,0,0,1,2.41-1.8L172,19a3.15,3.15,0,0,0-1.87,1.62A6.74,6.74,0,0,0,169.53,23.6Z"/>
    <path class="a" d="M177.09,22.56a1.83,1.83,0,0,1,.77.57,1.4,1.4,0,0,1,.27.84,2.22,2.22,0,0,1-.33,1.23,2.33,2.33,0,0,1-1,.82,4.61,4.61,0,0,1-1.92.31h-2.4l.06-.26a.7.7,0,0,0,.31-.11.69.69,0,0,0,.17-.2,1.52,1.52,0,0,0,.13-.31q.06-.19.18-.72l.91-4.15a4.23,4.23,0,0,0,.12-.86.46.46,0,0,0-.12-.36.71.71,0,0,0-.41-.12l.06-.27h2.67a4.18,4.18,0,0,1,1.3.17,1.43,1.43,0,0,1,.71.5,1.38,1.38,0,0,1,.23.83,1.86,1.86,0,0,1-.43,1.23,2.72,2.72,0,0,1-1.28.81v0Zm-1.49-.29a3.93,3.93,0,0,0,1-.1,1.55,1.55,0,0,0,.66-.37,1.57,1.57,0,0,0,.42-.58,2,2,0,0,0,.13-.73,1.26,1.26,0,0,0-.08-.43.83.83,0,0,0-.28-.34,1.14,1.14,0,0,0-.46-.21,3,3,0,0,0-.68-.06h-.87l-.61,2.81Zm-1.54,3.57.81,0a3,3,0,0,0,1.23-.19,1.64,1.64,0,0,0,.71-.66,2.12,2.12,0,0,0,.29-1.17,1,1,0,0,0-.35-.82,1.78,1.78,0,0,0-1.07-.27h-1Z"/>
    <path class="a" d="M182.09,27.78a4.06,4.06,0,0,1-.91.68,2.2,2.2,0,0,1-1,.22,1.53,1.53,0,0,1-.54-.09,1,1,0,0,1-.4-.27,1.22,1.22,0,0,1-.25-.43,1.71,1.71,0,0,1-.08-.57,3.67,3.67,0,0,1,0-.46,2.72,2.72,0,0,1,.13-.49,2.76,2.76,0,0,1,.2-.47,3,3,0,0,1,.29-.43,2.45,2.45,0,0,1,.79-.64,2.31,2.31,0,0,1,1-.23,1.19,1.19,0,0,1,.76.22.8.8,0,0,1,.26.63c0,.95-.9,1.42-2.69,1.42l0,.22a2.17,2.17,0,0,0,0,.26,1,1,0,0,0,.17.63.71.71,0,0,0,.55.19,1.37,1.37,0,0,0,.36,0,1.4,1.4,0,0,0,.34-.13,1.63,1.63,0,0,0,.34-.22c.11-.09.23-.2.35-.32l.3.32Zm-2.29-1.29a4.27,4.27,0,0,0,.86-.08,2.39,2.39,0,0,0,.59-.2.9.9,0,0,0,.33-.31.68.68,0,0,0,.11-.39.56.56,0,0,0-.12-.38.45.45,0,0,0-.35-.14,1,1,0,0,0-.43.11,1.36,1.36,0,0,0-.39.3,2.1,2.1,0,0,0-.34.47A2.69,2.69,0,0,0,179.8,26.49Z"/>
    <path class="a" d="M185.37,23.24a7.11,7.11,0,0,0,.6,3.12A3.1,3.1,0,0,0,187.82,28l-.13.42a3.9,3.9,0,0,1-2.42-1.79,6.23,6.23,0,0,1-.84-3.32,6.14,6.14,0,0,1,.85-3.32,3.89,3.89,0,0,1,2.41-1.8l.15.42A3.15,3.15,0,0,0,186,20.22,6.74,6.74,0,0,0,185.37,23.24Z"/>
    <path class="a" d="M191.77,25.31a3.8,3.8,0,0,1-.9.84,1.72,1.72,0,0,1-.91.27,1,1,0,0,1-1.13-1.14,3.49,3.49,0,0,1,.09-.76l.64-2.8h-.91l.08-.37a1.93,1.93,0,0,0,.49-.05.85.85,0,0,0,.27-.12.67.67,0,0,0,.2-.21,2,2,0,0,0,.18-.36c.06-.15.15-.4.26-.76h.74l-.29,1.33h1.64l-.12.54h-1.64l-.48,2.1q-.14.6-.18.87c0,.18,0,.32,0,.43,0,.45.19.67.56.67a.88.88,0,0,0,.5-.18,3.55,3.55,0,0,0,.64-.62Z"/>
    <path class="a" d="M194.25,25.64a4,4,0,0,1,.75-.78,1.37,1.37,0,0,1,.77-.26.79.79,0,0,1,.62.23.89.89,0,0,1,.21.63,1.6,1.6,0,0,1,0,.33c0,.15-.05.3-.09.47s-.07.35-.11.53-.08.34-.12.5-.07.28-.09.38,0,.18,0,.2a.32.32,0,0,0,.06.22.21.21,0,0,0,.17.07l.15,0a.6.6,0,0,0,.15-.09,2,2,0,0,0,.18-.15l.21-.22.27.26-.35.34a2.79,2.79,0,0,1-.32.23,1.35,1.35,0,0,1-.3.14,1.08,1.08,0,0,1-.32,0,.58.58,0,0,1-.26-.05.75.75,0,0,1-.2-.15.69.69,0,0,1-.18-.52,2.73,2.73,0,0,1,0-.37c0-.14.06-.29.1-.46s.09-.33.13-.49.08-.3.11-.43,0-.25.07-.35a1.28,1.28,0,0,0,0-.26.6.6,0,0,0-.09-.36.37.37,0,0,0-.29-.11.65.65,0,0,0-.26.06,1.34,1.34,0,0,0-.27.17,2.17,2.17,0,0,0-.27.26,1.83,1.83,0,0,0-.24.31,2.37,2.37,0,0,0-.19.35,1.74,1.74,0,0,0-.13.36l-.44,2h-.77l.59-2.56a3,3,0,0,0,.08-.36c0-.11,0-.2,0-.27s-.08-.28-.23-.28a.4.4,0,0,0-.15,0l-.15.09-.17.15-.22.21-.27-.26c.13-.13.25-.25.36-.34a2,2,0,0,1,.31-.24,1.3,1.3,0,0,1,.3-.13.94.94,0,0,1,.3,0,.56.56,0,0,1,.45.19.76.76,0,0,1,.16.51.92.92,0,0,1,0,.16,1.09,1.09,0,0,1-.05.17Z"/>
    <path class="a" d="M200.78,23.24a6.74,6.74,0,0,0-.6-3,3.12,3.12,0,0,0-1.87-1.62l.14-.42a3.91,3.91,0,0,1,2.42,1.8,6.23,6.23,0,0,1,.84,3.32,6.23,6.23,0,0,1-.84,3.32,3.87,3.87,0,0,1-2.42,1.79l-.13-.42a3.11,3.11,0,0,0,1.86-1.63A7.11,7.11,0,0,0,200.78,23.24Z"/>
    <rect x="205.87" y="22.82" width="6.64" height="0.72"/>
    <path class="a" d="M219.39,19a5.86,5.86,0,0,1,1.32.13,2.55,2.55,0,0,1,.94.45,1.84,1.84,0,0,1,.66.86,3.24,3.24,0,0,1,.22,1.27,5.81,5.81,0,0,1-.16,1.39,4.85,4.85,0,0,1-.48,1.22,4.26,4.26,0,0,1-.75,1,4.41,4.41,0,0,1-.85.63,3.23,3.23,0,0,1-.92.33,5.15,5.15,0,0,1-1.18.11h-2.26l.06-.26a.7.7,0,0,0,.31-.11.69.69,0,0,0,.17-.2,1.52,1.52,0,0,0,.13-.31q.06-.19.18-.72l.91-4.15a4.22,4.22,0,0,0,.12-.87.43.43,0,0,0-.13-.36.74.74,0,0,0-.4-.11l.06-.27Zm-1.9,6.87h.6a3.31,3.31,0,0,0,1.48-.3,2.75,2.75,0,0,0,1.06-1,5,5,0,0,0,.65-1.36,5.42,5.42,0,0,0,.21-1.52A2.44,2.44,0,0,0,221,20a2,2,0,0,0-1.56-.57l-.51,0Z"/>
    <path class="a" d="M225.57,23.24a7.11,7.11,0,0,0,.6,3.12A3.1,3.1,0,0,0,228,28l-.13.42a3.9,3.9,0,0,1-2.42-1.79,6.23,6.23,0,0,1-.84-3.32,6.14,6.14,0,0,1,.85-3.32,3.89,3.89,0,0,1,2.41-1.8l.15.42a3.15,3.15,0,0,0-1.87,1.62A6.74,6.74,0,0,0,225.57,23.24Z"/>
    <path class="a" d="M232,25.31a3.8,3.8,0,0,1-.9.84,1.72,1.72,0,0,1-.91.27A1,1,0,0,1,229,25.28a3.49,3.49,0,0,1,.09-.76l.64-2.8h-.91l.08-.37a1.93,1.93,0,0,0,.49-.05.85.85,0,0,0,.27-.12.67.67,0,0,0,.2-.21,2,2,0,0,0,.18-.36c.06-.15.15-.4.26-.76h.74l-.29,1.33h1.64l-.12.54h-1.64l-.48,2.1q-.13.6-.18.87c0,.18,0,.32,0,.43,0,.45.19.67.56.67a.88.88,0,0,0,.5-.18,3.55,3.55,0,0,0,.64-.62Z"/>
    <path class="a" d="M234.45,25.64a4,4,0,0,1,.75-.78,1.37,1.37,0,0,1,.77-.26.79.79,0,0,1,.62.23.89.89,0,0,1,.21.63,1.6,1.6,0,0,1,0,.33c0,.15,0,.3-.09.47s-.07.35-.11.53-.08.34-.12.5-.07.28-.09.38a1,1,0,0,0,0,.2.32.32,0,0,0,.06.22.21.21,0,0,0,.17.07.4.4,0,0,0,.15,0,.6.6,0,0,0,.15-.09,2,2,0,0,0,.18-.15l.21-.22.27.26-.35.34a2.79,2.79,0,0,1-.32.23,1.35,1.35,0,0,1-.3.14,1.08,1.08,0,0,1-.32,0,.58.58,0,0,1-.26-.05.75.75,0,0,1-.2-.15.69.69,0,0,1-.18-.52,2.73,2.73,0,0,1,0-.37c0-.14.06-.29.1-.46s.09-.33.13-.49.08-.3.11-.43.05-.25.07-.35a1.28,1.28,0,0,0,0-.26.6.6,0,0,0-.09-.36.37.37,0,0,0-.29-.11.65.65,0,0,0-.26.06,1.34,1.34,0,0,0-.27.17,2.17,2.17,0,0,0-.27.26,1.83,1.83,0,0,0-.24.31,4,4,0,0,0-.2.35,2.53,2.53,0,0,0-.12.36l-.44,2h-.77l.59-2.56c0-.13.06-.25.08-.36s0-.2,0-.27-.08-.28-.23-.28a.4.4,0,0,0-.15,0,.85.85,0,0,0-.15.09l-.17.15-.22.21-.27-.26c.13-.13.25-.25.36-.34a2,2,0,0,1,.31-.24,1.3,1.3,0,0,1,.3-.13.94.94,0,0,1,.3,0,.57.57,0,0,1,.45.19.76.76,0,0,1,.16.51.92.92,0,0,1,0,.16,1.09,1.09,0,0,1,0,.17Z"/>
    <path class="a" d="M241,23.24a6.74,6.74,0,0,0-.6-3,3.12,3.12,0,0,0-1.87-1.62l.14-.42a3.91,3.91,0,0,1,2.42,1.8,6.23,6.23,0,0,1,.84,3.32,6.23,6.23,0,0,1-.84,3.32,3.87,3.87,0,0,1-2.42,1.79l-.13-.42a3.11,3.11,0,0,0,1.86-1.63A7.11,7.11,0,0,0,241,23.24Z"/>
    <path class="a" d="M245.54,23.6a6.74,6.74,0,0,0-.6-3A3.12,3.12,0,0,0,243.07,19l.14-.42a3.91,3.91,0,0,1,2.42,1.8,6.23,6.23,0,0,1,.84,3.32,6.23,6.23,0,0,1-.84,3.32,3.87,3.87,0,0,1-2.42,1.79l-.13-.42a3.11,3.11,0,0,0,1.86-1.63A7.11,7.11,0,0,0,245.54,23.6Z"/>
    <polygon class="a" points="247.65 27.91 249.16 27.91 249.16 18.46 247.65 18.46 247.65 18.04 250.06 18.04 250.06 28.32 247.65 28.32 247.65 27.91"/>
    <path class="a" d="M258.73,22.91a3.78,3.78,0,0,0,.12-.79.54.54,0,0,0-.07-.32.25.25,0,0,0-.22-.09.59.59,0,0,0-.35.13,3.77,3.77,0,0,0-.51.5l-.31-.3a5.16,5.16,0,0,1,.83-.73,1.26,1.26,0,0,1,.74-.22.67.67,0,0,1,.54.22.87.87,0,0,1,.19.59,1.73,1.73,0,0,1-.13.63l.07,0a5.28,5.28,0,0,1,1-1.1,1.63,1.63,0,0,1,1-.36,1,1,0,0,1,.77.29,1.12,1.12,0,0,1,.27.8,4.06,4.06,0,0,1-.16,1l-.35,1.41a3.74,3.74,0,0,0-.14.83.51.51,0,0,0,.07.31.24.24,0,0,0,.22.1.63.63,0,0,0,.34-.13,3.87,3.87,0,0,0,.52-.51l.31.3a4.47,4.47,0,0,1-.81.73,1.41,1.41,0,0,1-.79.23.69.69,0,0,1-.56-.25,1,1,0,0,1-.21-.64,4.42,4.42,0,0,1,.18-1l.24-.93c.08-.34.14-.59.17-.75a3.58,3.58,0,0,0,0-.4.91.91,0,0,0-.13-.53.47.47,0,0,0-.4-.17.87.87,0,0,0-.49.18,3.16,3.16,0,0,0-.56.55,5,5,0,0,0-.47.7,3.66,3.66,0,0,0-.29.85l-.51,2.33H258Z"/>
    <polygon class="a" points="256.81 18.26 252.4 28.29 251.57 28.29 255.99 18.26 256.81 18.26"/>
    <rect x="91.28" y="15.39" width="194.33" height="0.72"/>
  </g>
</svg>
