<?xml version="1.0" encoding="iso-8859-1"?>
<!-- Generator: Adobe Illustrator 16.0.0, SVG Export Plug-In . SVG Version: 6.00 Build 0)  -->
<!DOCTYPE svg PUBLIC "-//W3C//DTD SVG 1.1//EN" "http://www.w3.org/Graphics/SVG/1.1/DTD/svg11.dtd">
<svg xmlns="http://www.w3.org/2000/svg" width="11.53" height="11.52" viewBox="0 0 11.53 11.52">
  <defs>
    <style>
      .a {
        fill: #dd4b39;
      }
    </style>
  </defs>
  <title>Google+</title>
  <path class="a" d="M6,0A5.6,5.6,0,0,1,8.24.45a5.8,5.8,0,0,1,1.84,1.24,6,6,0,0,1,1.23,1.82,5.71,5.71,0,0,1,0,4.49,6.13,6.13,0,0,1-1.23,1.83,5.94,5.94,0,0,1-1.84,1.23A5.44,5.44,0,0,1,6,11.52a5.44,5.44,0,0,1-2.24-.46A5.94,5.94,0,0,1,1.92,9.83,6.13,6.13,0,0,1,.69,8a5.71,5.71,0,0,1,0-4.49A6,6,0,0,1,1.92,1.69,5.8,5.8,0,0,1,3.76.45,5.6,5.6,0,0,1,6,0ZM5.67,8.23A1.38,1.38,0,0,0,6,8a1.44,1.44,0,0,0,.22-.27,1.53,1.53,0,0,0,.13-.32,1.67,1.67,0,0,0,0-.39,1,1,0,0,0-.06-.36.9.9,0,0,0-.16-.29A1.59,1.59,0,0,0,6,6.16L5.74,6l-.2-.19a.3.3,0,0,1-.09-.19.25.25,0,0,1,.06-.16l.17-.17.15-.16A.76.76,0,0,0,6,4.9a1.69,1.69,0,0,0,.1-.27,1.55,1.55,0,0,0,0-.33,2.81,2.81,0,0,0,0-.3A1,1,0,0,0,6,3.74a.64.64,0,0,0-.34-.36l.11,0,.13,0,.15,0a.4.4,0,0,0,.15,0l.12-.06a.11.11,0,0,0,0-.09v0H5l-.71.19c-.46.12-.7.5-.7,1.14a1.58,1.58,0,0,0,0,.32A1.34,1.34,0,0,0,3.68,5a1.07,1.07,0,0,0,.15.22A.77.77,0,0,0,4,5.39a.66.66,0,0,0,.19.09l.18.06.17,0h.22A1.1,1.1,0,0,0,5,6.18H5l-.43,0A1.83,1.83,0,0,0,4,6.34a1.27,1.27,0,0,0-.48.35.85.85,0,0,0-.21.61.93.93,0,0,0,.19.63,1.13,1.13,0,0,0,.43.33,1.21,1.21,0,0,0,.47.14l.32,0h.23l.21,0,.27-.06A1.48,1.48,0,0,0,5.67,8.23ZM4.93,6.45a1,1,0,0,1,.36,0,.92.92,0,0,1,.28.14.76.76,0,0,1,.17.23.54.54,0,0,1,.08.28.6.6,0,0,1-.05.3.69.69,0,0,1-.18.24,1.1,1.1,0,0,1-.28.17,1.12,1.12,0,0,1-.38.07,1.64,1.64,0,0,1-.39,0,.82.82,0,0,1-.32-.12A.66.66,0,0,1,4,7.58a.56.56,0,0,1-.1-.28.88.88,0,0,1,0-.16A.57.57,0,0,1,4,7,.64.64,0,0,1,4,6.86a.71.71,0,0,1,.12-.13l.14-.11.17-.08.19-.06a.63.63,0,0,1,.19,0h.09Zm.53-2.32a1.47,1.47,0,0,1,0,.36,1.75,1.75,0,0,1-.06.33.78.78,0,0,1-.16.24.48.48,0,0,1-.22.14H5a.46.46,0,0,1-.23,0A.6.6,0,0,1,4.51,5a.94.94,0,0,1-.16-.23,1.48,1.48,0,0,1-.12-.29.57.57,0,0,1,0-.18.88.88,0,0,1,0-.16l0-.16a.58.58,0,0,1,0-.14l.07-.14a1,1,0,0,1,.08-.11l.09-.08.11,0h.12A1,1,0,0,1,5,3.5a.43.43,0,0,1,.21.11.54.54,0,0,1,.16.2A1.41,1.41,0,0,1,5.46,4.13ZM8.72,5.75V5.18H7.8V4.27H7.23v.91H6.32v.57h.91v.91H7.8V5.75Z" transform="translate(-0.23)"/>
</svg>
