<?xml version="1.0" encoding="iso-8859-1"?>
<!-- Generator: Adobe Illustrator 16.0.0, SVG Export Plug-In . SVG Version: 6.00 Build 0)  -->
<!DOCTYPE svg PUBLIC "-//W3C//DTD SVG 1.1//EN" "http://www.w3.org/Graphics/SVG/1.1/DTD/svg11.dtd">
<svg xmlns="http://www.w3.org/2000/svg" width="11.53" height="11.52" viewBox="0 0 11.53 11.52">
  <defs>
    <style>
      .a {
        fill: #0077b5;
      }
    </style>
  </defs>
  <title>Linkedin</title>
  <path class="a" d="M6,0A5.6,5.6,0,0,1,8.24.45a5.8,5.8,0,0,1,1.84,1.24,6,6,0,0,1,1.23,1.82,5.71,5.71,0,0,1,0,4.49,6.13,6.13,0,0,1-1.23,1.83,5.94,5.94,0,0,1-1.84,1.23A5.44,5.44,0,0,1,6,11.52a5.44,5.44,0,0,1-2.24-.46A5.94,5.94,0,0,1,1.92,9.83,6.13,6.13,0,0,1,.69,8a5.71,5.71,0,0,1,0-4.49A6,6,0,0,1,1.92,1.69,5.8,5.8,0,0,1,3.76.45,5.6,5.6,0,0,1,6,0ZM4,3.93a.76.76,0,0,0,.27-.05.39.39,0,0,0,.19-.12.5.5,0,0,0,.13-.19.54.54,0,0,0,0-.22.59.59,0,0,0,0-.23.62.62,0,0,0-.12-.19.41.41,0,0,0-.19-.12.66.66,0,0,0-.25,0,.75.75,0,0,0-.26,0,.51.51,0,0,0-.2.12.62.62,0,0,0-.12.19.59.59,0,0,0,0,.23.54.54,0,0,0,0,.22.62.62,0,0,0,.12.19.35.35,0,0,0,.19.12A.7.7,0,0,0,4,3.93Zm.59,4.21V4.39H3.42V8.14Zm4.26,0V5.93a2.63,2.63,0,0,0-.1-.73,1.29,1.29,0,0,0-.29-.5A1.25,1.25,0,0,0,8,4.4a1.32,1.32,0,0,0-.53-.1,1.14,1.14,0,0,0-.43.07,1.72,1.72,0,0,0-.33.14,1.59,1.59,0,0,0-.24.2,1.27,1.27,0,0,0-.16.2h0l-.06-.52h-1a2.35,2.35,0,0,0,0,.26V5a2.66,2.66,0,0,1,0,.3V8.14H6.46V5.82l0-.14a1.19,1.19,0,0,1,.09-.15.87.87,0,0,1,.12-.14,1,1,0,0,1,.17-.1.54.54,0,0,1,.22,0,.61.61,0,0,1,.28.06.55.55,0,0,1,.18.16.88.88,0,0,1,.1.26,1.15,1.15,0,0,1,0,.33V8.14Z" transform="translate(-0.23)"/>
</svg>
