<?xml version="1.0" encoding="iso-8859-1"?>
<!-- Generator: Adobe Illustrator 16.0.0, SVG Export Plug-In . SVG Version: 6.00 Build 0)  -->
<!DOCTYPE svg PUBLIC "-//W3C//DTD SVG 1.1//EN" "http://www.w3.org/Graphics/SVG/1.1/DTD/svg11.dtd">
<svg xmlns="http://www.w3.org/2000/svg" width="11.53" height="11.52" viewBox="0 0 11.53 11.52">
  <defs>
    <style>
      .a {
        fill: #cb2027;
      }
    </style>
  </defs>
  <title>Pin</title>
  <path class="a" d="M6,0A5.6,5.6,0,0,1,8.24.45a5.8,5.8,0,0,1,1.84,1.24,6,6,0,0,1,1.23,1.82,5.71,5.71,0,0,1,0,4.49,6.13,6.13,0,0,1-1.23,1.83,5.94,5.94,0,0,1-1.84,1.23A5.44,5.44,0,0,1,6,11.52a5.44,5.44,0,0,1-2.24-.46A5.94,5.94,0,0,1,1.92,9.83,6.13,6.13,0,0,1,.69,8a5.71,5.71,0,0,1,0-4.49A6,6,0,0,1,1.92,1.69,5.8,5.8,0,0,1,3.76.45,5.6,5.6,0,0,1,6,0Zm.4,7.13a1.56,1.56,0,0,0,.89-.2A2,2,0,0,0,8,6.32a3,3,0,0,0,.35-.9,2.85,2.85,0,0,0,0-1A1.68,1.68,0,0,0,8,3.63a2,2,0,0,0-.6-.56,2.37,2.37,0,0,0-.81-.29,3.13,3.13,0,0,0-.92,0A2.51,2.51,0,0,0,5,3a2.26,2.26,0,0,0-.65.44A2.17,2.17,0,0,0,3.84,4a1.93,1.93,0,0,0-.2.8,2.64,2.64,0,0,0,0,.5,1,1,0,0,0,.14.4.79.79,0,0,0,.26.31,1.12,1.12,0,0,0,.43.18.76.76,0,0,0,.11-.32.48.48,0,0,0-.06-.24.82.82,0,0,0-.12-.2.5.5,0,0,1-.09-.24,1.43,1.43,0,0,1,.19-1,1.85,1.85,0,0,1,1.72-.91,1.39,1.39,0,0,1,.92.43,1.27,1.27,0,0,1,.32.79,2.61,2.61,0,0,1-.07,1,1.78,1.78,0,0,1-.44.8.77.77,0,0,1-.75.23q-.42-.07-.39-.42A2.85,2.85,0,0,1,6,5.36a4.73,4.73,0,0,0,.18-.77.4.4,0,0,0-.27-.49.5.5,0,0,0-.48,0,.83.83,0,0,0-.31.38A1.42,1.42,0,0,0,5,5.06a.9.9,0,0,0,.13.52c0,.25-.12.5-.19.74s-.13.5-.2.76a7.17,7.17,0,0,0-.11.81,4,4,0,0,0,0,.9A2,2,0,0,0,5,8.4a2.73,2.73,0,0,0,.25-.48,4.75,4.75,0,0,0,.18-.57c0-.21.09-.41.13-.61l.2.12L6,7l.2.09A.83.83,0,0,0,6.4,7.13Z" transform="translate(-0.23)"/>
</svg>


