<?xml version="1.0" encoding="iso-8859-1"?>
<!-- Generator: Adobe Illustrator 16.0.0, SVG Export Plug-In . SVG Version: 6.00 Build 0)  -->
<!DOCTYPE svg PUBLIC "-//W3C//DTD SVG 1.1//EN" "http://www.w3.org/Graphics/SVG/1.1/DTD/svg11.dtd">
<svg xmlns="http://www.w3.org/2000/svg" width="11.52" height="11.52" viewBox="0 0 11.52 11.52">
  <defs>
    <style>
      .a {
        fill: #1d3567;
      }
    </style>
  </defs>
  <title>Tumblr</title>
  <path class="a" d="M6,0A5.6,5.6,0,0,1,8.24.45,5.73,5.73,0,0,1,11.3,3.51a5.64,5.64,0,0,1,.45,2.24A5.65,5.65,0,0,1,11.3,8a5.92,5.92,0,0,1-1.22,1.83,5.94,5.94,0,0,1-1.84,1.23A5.44,5.44,0,0,1,6,11.52a5.44,5.44,0,0,1-2.24-.46A5.94,5.94,0,0,1,1.92,9.83,6.13,6.13,0,0,1,.69,8a5.71,5.71,0,0,1,0-4.49A6,6,0,0,1,1.92,1.69,5.8,5.8,0,0,1,3.76.45,5.6,5.6,0,0,1,6,0ZM7.55,8.24V7.36l-.21.12-.21.09-.2,0-.22,0H6.6l-.11,0-.1,0a.53.53,0,0,1-.1-.06.31.31,0,0,1-.11-.09.25.25,0,0,1-.07-.12.8.8,0,0,1,0-.23c0-.1,0-.24,0-.4V5.25h1.3V4.38H6.06V3H5.27a.71.71,0,0,1,0,.21,1.05,1.05,0,0,1,0,.19,1.09,1.09,0,0,1-.05.17,1,1,0,0,1-.07.15A.54.54,0,0,1,5,3.81l-.09.13a.31.31,0,0,1-.09.11l-.11.11-.12.09-.14.09-.14.07-.16,0v.79h.61V7.39c0,.06,0,.11,0,.16a.59.59,0,0,1,0,.13.36.36,0,0,0,0,.11s0,.07,0,.1A.21.21,0,0,0,5,8l.08.1.09.08.11.09.13.07a.47.47,0,0,0,.12.07l.13,0,.16,0,.16,0,.17,0h.51l.15,0,.14,0,.15,0,.16-.06.16-.06Z" transform="translate(-0.23)"/>
</svg>
