<?xml version="1.0" encoding="iso-8859-1"?>
<!-- Generator: Adobe Illustrator 16.0.0, SVG Export Plug-In . SVG Version: 6.00 Build 0)  -->
<!DOCTYPE svg PUBLIC "-//W3C//DTD SVG 1.1//EN" "http://www.w3.org/Graphics/SVG/1.1/DTD/svg11.dtd">
<svg xmlns="http://www.w3.org/2000/svg" width="11.53" height="11.52" viewBox="0 0 11.53 11.52">
  <defs>
    <style>
      .a {
        fill: #4099ff;
      }
    </style>
  </defs>
  <title>Tweet</title>
  <path class="a" d="M6,0A5.6,5.6,0,0,1,8.24.45a5.8,5.8,0,0,1,1.84,1.24,6,6,0,0,1,1.23,1.82,5.71,5.71,0,0,1,0,4.49,6.13,6.13,0,0,1-1.23,1.83,5.94,5.94,0,0,1-1.84,1.23A5.44,5.44,0,0,1,6,11.52a5.44,5.44,0,0,1-2.24-.46A5.94,5.94,0,0,1,1.92,9.83,6.13,6.13,0,0,1,.69,8a5.71,5.71,0,0,1,0-4.49A6,6,0,0,1,1.92,1.69,5.8,5.8,0,0,1,3.76.45,5.6,5.6,0,0,1,6,0ZM8.34,4.71l.16-.12.15-.15a.93.93,0,0,0,.13-.15,1,1,0,0,0,.13-.16l-.16.06-.16,0-.16,0-.17,0a.61.61,0,0,0,.16-.12L8.57,4a1,1,0,0,0,.1-.17c0-.07.06-.13.08-.19l-.17.09-.17.07-.18.07L8,4a1.3,1.3,0,0,0-.18-.15l-.2-.11-.21-.07-.24,0a1,1,0,0,0-.44.09.88.88,0,0,0-.36.24,1,1,0,0,0-.25.36,1.12,1.12,0,0,0-.09.44.62.62,0,0,0,0,.13l0,.13a3.11,3.11,0,0,1-.69-.11,3.41,3.41,0,0,1-.63-.24,3,3,0,0,1-.56-.36,3.48,3.48,0,0,1-.47-.47l-.06.12a.33.33,0,0,0,0,.15.74.74,0,0,0,0,.14.81.81,0,0,0,0,.15,1.36,1.36,0,0,0,0,.29,1.19,1.19,0,0,0,.11.26,1.77,1.77,0,0,0,.16.22,1.12,1.12,0,0,0,.2.18H4l-.14,0a.28.28,0,0,1-.12,0L3.6,5.18h0a1,1,0,0,0,.07.39,1,1,0,0,0,.19.34,1.37,1.37,0,0,0,.29.24.93.93,0,0,0,.36.14l-.14,0H4a1.48,1.48,0,0,0,.15.31,1.14,1.14,0,0,0,.24.25A1.2,1.2,0,0,0,4.71,7a1,1,0,0,0,.35.07,3.28,3.28,0,0,1-.31.2,1.26,1.26,0,0,1-.34.15,2.24,2.24,0,0,1-.37.1,2.6,2.6,0,0,1-.4,0H3.38a2.42,2.42,0,0,0,.39.21A2.75,2.75,0,0,0,4.2,8a3,3,0,0,0,.45.09,3.57,3.57,0,0,0,.47,0,3,3,0,0,0,1.38-.3,3.07,3.07,0,0,0,1-.75,3.16,3.16,0,0,0,.62-1,3.28,3.28,0,0,0,.21-1.14V4.71Z" transform="translate(-0.23)"/>
</svg>

