<?xml version="1.0" encoding="iso-8859-1"?>
<!-- Generator: Adobe Illustrator 16.0.0, SVG Export Plug-In . SVG Version: 6.00 Build 0)  -->
<!DOCTYPE svg PUBLIC "-//W3C//DTD SVG 1.1//EN" "http://www.w3.org/Graphics/SVG/1.1/DTD/svg11.dtd">
<svg xmlns="http://www.w3.org/2000/svg" width="12.86" height="7.34" viewBox="0 0 12.86 7.34">
  <defs>
    <style>
      .a {
        fill: #4e75a0;
      }
    </style>
  </defs>
  <title>VK</title>
  <path class="a" d="M0,2.87l0,0a.46.46,0,0,1,.38-.13H2.27l.16,0,.1.06,0,0A.41.41,0,0,1,2.72,3c.09.23.2.46.32.7l.26.55.11.18a7.44,7.44,0,0,0,.38.71,3.62,3.62,0,0,0,.32.45,1.63,1.63,0,0,0,.28.26.38.38,0,0,0,.23.1.58.58,0,0,0,.18,0l0,0,.08-.14A1.35,1.35,0,0,0,5,5.44a3.13,3.13,0,0,0,.06-.54,3.91,3.91,0,0,0,0-.84A2.54,2.54,0,0,0,5,3.56a1.38,1.38,0,0,0-.09-.3l0-.08A.84.84,0,0,0,4.3,2.9s0-.07,0-.17a1,1,0,0,1,.25-.2,4.53,4.53,0,0,1,1.6-.16,5.36,5.36,0,0,1,.91.09.93.93,0,0,1,.22.08.37.37,0,0,1,.13.17.86.86,0,0,1,.07.21,1.26,1.26,0,0,1,0,.3V3.6c0,.12,0,.27,0,.47v.55s0,.14,0,.28a1.79,1.79,0,0,0,0,.33,1.57,1.57,0,0,0,0,.27.53.53,0,0,0,.07.26.39.39,0,0,0,.15.16l.12,0s.09,0,.17-.07a2.3,2.3,0,0,0,.25-.23,3.77,3.77,0,0,0,.35-.45c.14-.2.29-.44.46-.71A12.38,12.38,0,0,0,9.82,3a.35.35,0,0,1,.07-.12A.23.23,0,0,1,10,2.78l0,0,0,0,.09,0a.14.14,0,0,1,.13,0h1.94a1.14,1.14,0,0,1,.42,0c.11,0,.19.07.21.12l0,.06c.11.29-.22.94-1,2l-.44.58a5.21,5.21,0,0,0-.61.88.52.52,0,0,0,.1.54l.54.55h0l0,0a6.47,6.47,0,0,1,1.28,1.48A.36.36,0,0,1,12.8,9a.82.82,0,0,1,0,.18.41.41,0,0,1,0,.22c0,.07-.07.13-.16.19a.86.86,0,0,1-.4.08l-1.71,0a.69.69,0,0,1-.37,0,1.59,1.59,0,0,1-.36-.14L9.7,9.44A3.51,3.51,0,0,1,9.23,9l-.45-.51a1.87,1.87,0,0,0-.41-.39A.46.46,0,0,0,8,8L8,8a.36.36,0,0,0-.12.09.72.72,0,0,0-.14.2,1.09,1.09,0,0,0-.12.35,2.78,2.78,0,0,0-.05.52.5.5,0,0,1,0,.18.59.59,0,0,1,0,.13l0,0a.66.66,0,0,1-.36.15H6.3a3,3,0,0,1-1-.11,3.37,3.37,0,0,1-.88-.36,7.43,7.43,0,0,1-.69-.43l-.47-.39-.16-.16L2.93,8l-.48-.61c-.24-.32-.48-.66-.72-1S1.23,5.57.91,5,.31,3.79.05,3.17A.67.67,0,0,1,0,3,.31.31,0,0,1,0,2.87Z" transform="translate(0 -2.37)"/>
</svg>
