<?xml version="1.0" encoding="iso-8859-1"?>
<!-- Generator: Adobe Illustrator 16.0.0, SVG Export Plug-In . SVG Version: 6.00 Build 0)  -->
<!DOCTYPE svg PUBLIC "-//W3C//DTD SVG 1.1//EN" "http://www.w3.org/Graphics/SVG/1.1/DTD/svg11.dtd">
<svg xmlns="http://www.w3.org/2000/svg" width="7.5" height="12" viewBox="0 0 7.5 12">
  <defs>
    <style>
      .a {
        fill: #1e2425;
      }
    </style>
  </defs>
  <title>what-ul</title>
  <path class="a" d="M6,0a3.67,3.67,0,0,1,2.65,1.1A3.92,3.92,0,0,1,9.46,2.3a3.8,3.8,0,0,1,.29,1.46Q9.75,6.58,6,12,2.25,6.58,2.25,3.76A3.8,3.8,0,0,1,2.54,2.3a3.92,3.92,0,0,1,.81-1.19A3.67,3.67,0,0,1,6,0ZM6,6.06a2.26,2.26,0,0,0,.9-.18,2.6,2.6,0,0,0,.73-.49,2.67,2.67,0,0,0,.49-.73,2.26,2.26,0,0,0,.18-.9,2.18,2.18,0,0,0-.18-.89,2.72,2.72,0,0,0-.49-.74,2.57,2.57,0,0,0-.73-.48,2.23,2.23,0,0,0-1.8,0,2.57,2.57,0,0,0-.73.48,2.72,2.72,0,0,0-.49.74,2.18,2.18,0,0,0-.18.89,2.26,2.26,0,0,0,.18.9,2.67,2.67,0,0,0,.49.73,2.6,2.6,0,0,0,.73.49A2.26,2.26,0,0,0,6,6.06ZM4.55,3.76a1.38,1.38,0,0,0,.11.57A1.33,1.33,0,0,0,5,4.79a1.29,1.29,0,0,0,.46.31,1.53,1.53,0,0,0,1.14,0A1.29,1.29,0,0,0,7,4.79a1.33,1.33,0,0,0,.31-.46,1.38,1.38,0,0,0,.11-.57,1.38,1.38,0,0,0-.11-.57,1.45,1.45,0,0,0-.77-.77,1.53,1.53,0,0,0-1.14,0,1.45,1.45,0,0,0-.77.77A1.38,1.38,0,0,0,4.55,3.76Z" transform="translate(-2.25 -0.01)"/>
</svg>
