<?xml version="1.0" encoding="iso-8859-1"?>
<!-- Generator: Adobe Illustrator 16.0.0, SVG Export Plug-In . SVG Version: 6.00 Build 0)  -->
<!DOCTYPE svg PUBLIC "-//W3C//DTD SVG 1.1//EN" "http://www.w3.org/Graphics/SVG/1.1/DTD/svg11.dtd">
<svg xmlns="http://www.w3.org/2000/svg" width="10.29" height="12" viewBox="0 0 10.29 12">
  <defs>
    <style>
      .a {
        fill: #1e2425;
      }
    </style>
  </defs>
  <title>PDF</title>
  <path class="a" d="M0,.64A.58.58,0,0,1,.19.19.58.58,0,0,1,.64,0h6a1.53,1.53,0,0,1,.59.14,1.54,1.54,0,0,1,.52.32L9.83,2.54a1.54,1.54,0,0,1,.32.52,1.48,1.48,0,0,1,.14.58v7.72a.58.58,0,0,1-.19.45.6.6,0,0,1-.46.19h-9a.58.58,0,0,1-.45-.19A.58.58,0,0,1,0,11.36Zm9.43,10.5V4.29H6.64a.58.58,0,0,1-.45-.19A.6.6,0,0,1,6,3.64V.86H.86V11.14ZM2.1,9.27A3.18,3.18,0,0,1,3,8.63a.09.09,0,0,1,.15,0l0,0c.23-.39.47-.83.72-1.33a10.13,10.13,0,0,0,.69-1.74,4.75,4.75,0,0,1-.2-1.08,2.83,2.83,0,0,1,0-.85c.06-.18.15-.27.29-.27h.15a.26.26,0,0,1,.23.1A.52.52,0,0,1,5.12,4s0,.06,0,.06v.25A8,8,0,0,1,5,5.58,3.4,3.4,0,0,0,6,7.17a5.35,5.35,0,0,0,.56.38,7.13,7.13,0,0,1,.79,0c.65,0,1.05.11,1.18.33a.34.34,0,0,1,0,.35h0c0,.17-.18.25-.47.25a2.63,2.63,0,0,1-.77-.13A4.06,4.06,0,0,1,6.4,8a11.82,11.82,0,0,0-2.63.55c-.68,1.17-1.23,1.76-1.63,1.76a.41.41,0,0,1-.18,0l-.16-.08,0,0a.34.34,0,0,1,0-.24A1.48,1.48,0,0,1,2.1,9.27Zm.95-.4a4.55,4.55,0,0,0-.59.56,2.34,2.34,0,0,0-.33.5A3.22,3.22,0,0,0,3.05,8.87ZM5.87,7.65l-.09-.07L5.67,7.5a3.81,3.81,0,0,1-.85-1.18,9.18,9.18,0,0,1-.55,1.32L4,8.19A9.79,9.79,0,0,1,5.87,7.65Zm-1-3.29a2,2,0,0,1,0-.29A.14.14,0,0,1,4.9,4h0V4a.32.32,0,0,0-.09-.24h0a2.3,2.3,0,0,0,0,.89S4.8,4.52,4.83,4.36Zm4.55-.93a.79.79,0,0,0-.16-.28L7.14,1.05A1.43,1.43,0,0,0,6.86.91V3.43ZM8.18,8.11h.13a0,0,0,0,0,0,0,1.57,1.57,0,0,0-.94-.17A2.45,2.45,0,0,0,8.18,8.11Z"/>
</svg>
