<?xml version="1.0" encoding="iso-8859-1"?>
<!-- Generator: Adobe Illustrator 16.0.0, SVG Export Plug-In . SVG Version: 6.00 Build 0)  -->
<!DOCTYPE svg PUBLIC "-//W3C//DTD SVG 1.1//EN" "http://www.w3.org/Graphics/SVG/1.1/DTD/svg11.dtd">
<svg xmlns="http://www.w3.org/2000/svg" width="12" height="10.5" viewBox="0 0 12 10.5">
  <defs>
    <style>
      .a {
        fill: #1e2425;
      }
    </style>
  </defs>
  <title>print</title>
  <path class="a" d="M11.25,2.31a.72.72,0,0,1,.29.06.67.67,0,0,1,.24.16.78.78,0,0,1,.16.24.72.72,0,0,1,.06.29V6.81a.72.72,0,0,1-.06.29.67.67,0,0,1-.16.24.78.78,0,0,1-.24.16.72.72,0,0,1-.29.06H9v3H3v-3H.75A.72.72,0,0,1,.46,7.5a.67.67,0,0,1-.24-.16A.78.78,0,0,1,.06,7.1.72.72,0,0,1,0,6.81V3.06a.72.72,0,0,1,.06-.29.67.67,0,0,1,.16-.24.67.67,0,0,1,.24-.16.72.72,0,0,1,.29-.06ZM3,1.56H9V.06H3ZM8.25,9.81V6.06H3.75V9.81Zm3.16-6.37a.51.51,0,0,0,0-.22.48.48,0,0,0-.28-.28.49.49,0,0,0-.21,0,.51.51,0,0,0-.22,0,.48.48,0,0,0-.28.28.51.51,0,0,0,0,.22.49.49,0,0,0,0,.21.48.48,0,0,0,.28.28.51.51,0,0,0,.22,0,.49.49,0,0,0,.21,0,.48.48,0,0,0,.28-.28A.49.49,0,0,0,11.41,3.44Z" transform="translate(0 -0.06)"/>
</svg>
