<?xml version="1.0" encoding="iso-8859-1"?>
<!-- Generator: Adobe Illustrator 16.0.0, SVG Export Plug-In . SVG Version: 6.00 Build 0)  -->
<!DOCTYPE svg PUBLIC "-//W3C//DTD SVG 1.1//EN" "http://www.w3.org/Graphics/SVG/1.1/DTD/svg11.dtd">
<svg xmlns="http://www.w3.org/2000/svg" width="12" height="7.71" viewBox="0 0 12 7.71">
  <defs>
    <style>
      .a {
        fill: #1e2425;
      }
    </style>
  </defs>
  <title>view</title>
  <path class="a" d="M.13,5.38A7.1,7.1,0,0,1,2.66,2.92a6.46,6.46,0,0,1,6.68,0,7.1,7.1,0,0,1,2.53,2.46.9.9,0,0,1,0,.93A7,7,0,0,1,9.34,8.78a6.49,6.49,0,0,1-6.68,0A7.1,7.1,0,0,1,.13,6.31a.9.9,0,0,1,0-.93ZM3.09,8A5.43,5.43,0,0,0,6,8.85,5.43,5.43,0,0,0,8.91,8a6.92,6.92,0,0,0,2.23-2.18A6.63,6.63,0,0,0,8.59,3.48,3,3,0,0,1,9,5,2.85,2.85,0,0,1,8.12,7.1,2.83,2.83,0,0,1,6,8,2.83,2.83,0,0,1,3.88,7.1,2.85,2.85,0,0,1,3,5a3,3,0,0,1,.41-1.51A6.63,6.63,0,0,0,.86,5.85,6.92,6.92,0,0,0,3.09,8Zm1-2.81a.36.36,0,0,0,.24.09.29.29,0,0,0,.22-.09A.34.34,0,0,0,4.61,5,1.28,1.28,0,0,1,5,4,1.34,1.34,0,0,1,6,3.6a.29.29,0,0,0,.22-.09.33.33,0,0,0,.1-.24.28.28,0,0,0-.1-.22A.3.3,0,0,0,6,3,2,2,0,0,0,4,5,.33.33,0,0,0,4.05,5.22Z" transform="translate(0 -1.99)"/>
</svg>